<svg xmlns="http://www.w3.org/2000/svg" xmlns:xlink="http://www.w3.org/1999/xlink" width="600" height="600"><g transform="translate(0 -680)"><circle cx="301.103" cy="978.23" r="249.375" fill="#2ec27e"/><circle r="191.084" cy="978.23" cx="301.103" fill="#33d17a"/><circle cx="301.103" cy="978.23" r="122.639" fill="#57e389"/><circle r="62.94" cy="978.23" cx="301.103" fill="#8ff0a4"/></g><g transform="translate(0 -680)"><path d="M323.715 989.934c0 9.722-7.456 17.603-16.654 17.603s-16.654-7.881-16.654-17.603c0-9.722 16.654-53.167 16.654-53.167s16.654 43.445 16.654 53.167z" fill="#2ec27e"/><path d="M307.06 936.768s-.557 1.492-.697 1.859v68.873c.233.01.462.037.697.037 9.198 0 16.655-7.882 16.655-17.603 0-9.722-16.655-53.166-16.655-53.166z" fill="#26a269"/><path d="M353.983 1046.392c-8.083 8.084-20.836 8.437-28.483.79-7.648-7.648-7.295-20.4.789-28.484 8.083-8.083 58.053-30.359 58.053-30.359s-22.276 49.97-30.359 58.053z" fill="#2ec27e"/><path d="M384.34 988.34s-1.704.777-2.125.966l-57.265 57.264c.185.203.353.415.55.61 7.647 7.649 20.4 7.295 28.483-.788 8.083-8.084 30.358-58.053 30.358-58.053z" fill="#26a269"/><path d="M306.839 984.195l-4.51 143.792 9.288.308z" fill="#63452c"/><path d="M366.08 1005.867l-60.511 58.2 3.876 4.141z" fill="#63452c"/><path d="M308.935 1114.256a18.346 18.346 0 00-14.466 7.074h-.065l-80.65 114.897h188.062l-76.063-111.774c-3.112-5.39-9.623-10.198-16.802-10.2z" fill="#5e5c64"/><path d="M308.935 1114.256c-.86 0-1.712.07-2.552.19 5.049.923 5.473 5.234 8.23 10.01l30.23 111.773h56.973l-76.064-111.774c-3.112-5.39-9.622-10.198-16.8-10.2z" fill="#3d3846"/><circle r="5.854" cy="1182.691" cx="264.281" fill="#3d3846"/><circle r="3.185" cy="1194.487" cx="273.854" fill="#3d3846"/><circle r="6.75" cy="1210.342" cx="305.016" fill="#77767b"/><circle r="4.486" cy="1206.199" cx="325.961" fill="#77767b"/><circle r="5.351" cy="1155.161" cx="320.546" fill="#3d3846"/><circle r="3.821" cy="1142.257" cx="310.347" fill="#77767b"/><circle r="3.993" cy="1168.749" cx="326.933" fill="#3d3846"/></g><g id="a"><path style="line-height:normal;font-variant-ligatures:normal;font-variant-position:normal;font-variant-caps:normal;font-variant-numeric:normal;font-variant-alternates:normal;font-variant-east-asian:normal;font-feature-settings:normal;font-variation-settings:normal;text-indent:0;text-align:start;text-decoration-line:none;text-decoration-style:solid;text-decoration-color:#000;text-transform:none;text-orientation:mixed;white-space:normal;shape-padding:0;shape-margin:0;inline-size:0;isolation:auto;mix-blend-mode:normal;solid-color:#000;solid-opacity:1" d="M405.708 144.318a16.727 16.727 0 00-12.271 5.387c0-.003 0-.005.002-.008-.252.273-.492.554-.725.842-.08.1-.154.203-.232.305a16.746 16.746 0 00-.75 1.048c-.166.253-.323.51-.475.772-.05.088-.105.173-.154.262-.193.346-.372.7-.54 1.058-.054.117-.102.237-.154.356-.116.266-.227.535-.33.808-.05.135-.1.268-.148.405-.135.386-.261.775-.367 1.171-1.944 7.256 1.19 14.676 7.222 18.487.306.193.63.361.95.535l-13.955-3.887a16.724 16.724 0 00-16.627 4.818l.004-.011c-.253.273-.496.557-.729.846-.071.088-.138.18-.207.27a16.723 16.723 0 00-1.209 1.79c-.068.116-.14.228-.205.346-.19.342-.364.692-.53 1.047-.05.108-.096.22-.144.33a16.75 16.75 0 00-.344.842c-.045.12-.092.24-.134.363-.138.394-.267.79-.375 1.195-2.393 8.93 2.908 18.108 11.838 20.5l9.845 2.742a16.739 16.739 0 00-7.144 4.567v.002l-.028.03a16.739 16.739 0 00-.636.731l-.002.004a16.739 16.739 0 00-.618.803 16.739 16.739 0 00-.545.805l-.037.057a16.739 16.739 0 00-.004.006 16.739 16.739 0 00-.496.841 16.739 16.739 0 00-.445.87l-.023.046a16.739 16.739 0 00-.399.91 16.739 16.739 0 00-.35.952 16.739 16.739 0 00-.292.972 16.739 16.739 0 00-.354 1.653l-.006.023a16.739 16.739 0 000 .006c0 .006 0 .012-.002.018a16.739 16.739 0 00-.176 1.574c-.002.04-.006.078-.007.117v.014a16.739 16.739 0 00-.015 1.46l.007.245v.004a16.739 16.739 0 00.127 1.408l.029.211a16.739 16.739 0 00.271 1.44 16.739 16.739 0 00.004.015l.026.104a16.739 16.739 0 00.431 1.474l.007.024a16.739 16.739 0 00.582 1.46l.022.047a16.739 16.739 0 00.717 1.39l.017.03a16.739 16.739 0 00.856 1.33c.002.003.003.007.006.01a16.739 16.739 0 00.955 1.213l.074.086a16.739 16.739 0 001.018 1.065 16.739 16.739 0 00.007.007l.129.12a16.739 16.739 0 001.064.915c.06.048.12.095.182.142a16.739 16.739 0 001.164.819l.152.097a16.739 16.739 0 00.012.008 16.739 16.739 0 001.277.721l.17.084a16.739 16.739 0 001.432.627l.052.021a16.739 16.739 0 001.604.518l22.187 5.945a16.739 16.739 0 00-6.382 4.3v.001l-.028.03a16.739 16.739 0 00-.637.732s0 .003-.002.004a16.739 16.739 0 00-1.693 2.502.149.149 0 01-.008.013 16.739 16.739 0 00-.443.866c-.007.016-.016.03-.024.047a16.739 16.739 0 00-.382.873l-.028.07a16.739 16.739 0 00-.334.91l-.006.014a16.739 16.739 0 00-.29.966 16.739 16.739 0 00-.354 1.653l-.006.023a16.739 16.739 0 000 .006l-.002.018a16.739 16.739 0 00-.172 1.549l-.014.209a16.739 16.739 0 00-.013 1.449l.006.172a16.739 16.739 0 00.128 1.445l.03.209a16.739 16.739 0 00.273 1.44l.035.146a16.739 16.739 0 00.424 1.447l.007.022a16.739 16.739 0 00.584 1.463l.022.047a16.739 16.739 0 00.712 1.384c.01.015.017.03.026.045a16.739 16.739 0 00.85 1.32c.002.004.003.008.006.01a16.739 16.739 0 00.976 1.239l.035.039a16.739 16.739 0 001.037 1.086l.145.137a16.739 16.739 0 001.054.906c.06.048.12.095.182.142a16.739 16.739 0 001.156.813l.18.115a16.739 16.739 0 001.27.717l.171.086a16.739 16.739 0 001.395.613l.13.049a16.739 16.739 0 001.561.502l49.932 13.379v42.347c0 .938.003 1.877.016 2.817v.002c.025 1.88.084 3.762.205 5.637v.002c.06.937.137 1.873.232 2.804a55.55 55.55 0 00.836 5.545c.188.913.405 1.821.65 2.721.246.9.522 1.793.833 2.678a38.81 38.81 0 001.615 3.895 39.213 39.213 0 002.023 3.696v.002a39.363 39.363 0 006.17 7.63c1.014.972 2.08 1.889 3.197 2.744h.002a37.866 37.866 0 003.723 2.511c.644.382 1.298.745 1.963 1.088h.002a39.809 39.809 0 004.098 1.832h.002a40.935 40.935 0 0013.16 2.646c2.994.1 5.999-.133 8.937-.714a37.769 37.769 0 002.19-.502 39.335 39.335 0 003.724-1.172c4.267-1.577 8.252-3.874 11.85-6.691a48.818 48.818 0 001.52-1.239 51.751 51.751 0 008.013-8.588c6.219-8.383 9.872-18.346 13.248-28.222l21.461-62.776c1.828-5.346 3.629-10.725 4.692-16.275.664-3.468 1.038-7.003 1.03-10.531v-.002c0-2.118-.144-4.232-.443-6.33a1.544 1.544 0 01-.019-.116c-1.139-7.84-4.65-15.33-9.928-21.207a15.704 15.704 0 00-1.957-2.41l-37.024-34.55c-2.44-2.44-5.423-4.803-9.035-6.014-.495-.18-.999-.345-1.52-.478l-5.296-1.42v.025l-.082-.021c-.106-1.87-.297-3.73-.659-5.567-.742-3.766-2.189-7.419-4.44-10.529a23.436 23.436 0 00-8.737-7.32c-3.456-1.673-7.308-2.485-11.147-2.485-3.839 0-7.69.812-11.146 2.485a23.435 23.435 0 00-8.739 7.32 24.12 24.12 0 00-2.097 3.512l-52.536-14.078a16.747 16.747 0 00-4.357-.57zm39.313 44.596l6.09 1.631 1.39.373v.08z" color="#000" font-weight="400" font-family="sans-serif" overflow="visible" opacity=".064" stroke-width="33.478" stroke-linecap="round"/><path style="line-height:normal;font-variant-ligatures:normal;font-variant-position:normal;font-variant-caps:normal;font-variant-numeric:normal;font-variant-alternates:normal;font-variant-east-asian:normal;font-feature-settings:normal;font-variation-settings:normal;text-indent:0;text-align:start;text-decoration-line:none;text-decoration-style:solid;text-decoration-color:#000;text-transform:none;text-orientation:mixed;white-space:normal;shape-padding:0;shape-margin:0;inline-size:0;isolation:auto;mix-blend-mode:normal;solid-color:#000;solid-opacity:1" d="M374.08 201.762a20 20 0 00-19.289 14.824 20 20 0 0014.143 24.494l124.896 33.467a20 20 0 0024.496-14.143 20 20 0 00-14.142-24.494l-124.899-33.467a20 20 0 00-5.205-.681zM392.744 127.912a20 20 0 00-19.29 14.824c-2.86 10.67 3.473 21.636 14.142 24.494l115.41 30.924 48.561 42.261c7.811 7.811 20.475 7.811 28.286 0 7.81-7.81 8.072-21.425.26-29.236l-44.238-41.28c-3.221-3.22-7.221-6.346-12.164-7.608l-125.762-33.697a20 20 0 00-5.205-.682z" color="#000" font-weight="400" font-family="sans-serif" overflow="visible" fill="#fff" stroke-width="40" stroke-linecap="round" transform="translate(76.33 29.857) scale(.83694)"/><path style="line-height:normal;font-variant-ligatures:normal;font-variant-position:normal;font-variant-caps:normal;font-variant-numeric:normal;font-variant-alternates:normal;font-variant-east-asian:normal;font-feature-settings:normal;font-variation-settings:normal;text-indent:0;text-align:start;text-decoration-line:none;text-decoration-style:solid;text-decoration-color:#000;text-transform:none;text-orientation:mixed;white-space:normal;shape-padding:0;shape-margin:0;inline-size:0;isolation:auto;mix-blend-mode:normal;solid-color:#000;solid-opacity:1" d="M402.477 246.895a20 20 0 00-19.29 14.824 20 20 0 0014.143 24.494l124.897 33.467a20 20 0 0024.496-14.143 20 20 0 00-14.143-24.494l-124.898-33.467a20 20 0 00-5.205-.681z" color="#000" font-weight="400" font-family="sans-serif" overflow="visible" fill="#fff" stroke-width="40" stroke-linecap="round" transform="translate(76.33 29.857) scale(.83694)"/><path style="line-height:normal;font-variant-ligatures:normal;font-variant-position:normal;font-variant-caps:normal;font-variant-numeric:normal;font-variant-alternates:normal;font-variant-east-asian:normal;font-feature-settings:normal;font-variation-settings:normal;text-indent:0;text-align:start;text-decoration-line:none;text-decoration-style:solid;text-decoration-color:#000;text-transform:none;text-orientation:mixed;white-space:normal;shape-padding:0;shape-margin:0;inline-size:0;isolation:auto;mix-blend-mode:normal;solid-color:#000;solid-opacity:1" d="M359.422 208.188a20 20 0 00-4.631 8.398c-2.858 10.67 3.473 21.635 14.143 24.494l124.896 33.467c10.67 2.86 21.638-3.473 24.496-14.143a20 20 0 00-3.922-17.937c-5.04 5.454-12.689 16.63-19.863 14.707l-124.896-33.466c-8.45-2.265-11.377-8.235-10.223-15.52z" color="#000" font-weight="400" font-family="sans-serif" overflow="visible" fill="#deddda" stroke-width="40" stroke-linecap="round" transform="translate(76.33 29.857) scale(.83694)"/><path style="line-height:normal;font-variant-ligatures:normal;font-variant-position:normal;font-variant-caps:normal;font-variant-numeric:normal;font-variant-alternates:normal;font-variant-east-asian:normal;font-feature-settings:normal;font-variation-settings:normal;text-indent:0;text-align:start;text-decoration-line:none;text-decoration-style:solid;text-decoration-color:#000;text-transform:none;text-orientation:mixed;white-space:normal;shape-padding:0;shape-margin:0;inline-size:0;isolation:auto;mix-blend-mode:normal;solid-color:#000;solid-opacity:1" d="M361.34 160.137a20 20 0 00-19.29 14.824c-2.858 10.67 3.474 21.635 14.143 24.494l148.897 41.467c10.67 2.86 21.637-3.473 24.496-14.143 2.858-10.669-3.474-21.635-14.143-24.494l-148.898-41.467a20 20 0 00-5.205-.681z" color="#000" font-weight="400" font-family="sans-serif" overflow="visible" fill="#fff" stroke-width="40" stroke-linecap="round" transform="translate(76.33 29.857) scale(.83694)"/><path style="line-height:normal;font-variant-ligatures:normal;font-variant-position:normal;font-variant-caps:normal;font-variant-numeric:normal;font-variant-alternates:normal;font-variant-east-asian:normal;font-feature-settings:normal;font-variation-settings:normal;text-indent:0;text-align:start;text-decoration-line:none;text-decoration-style:solid;text-decoration-color:#000;text-transform:none;text-orientation:mixed;white-space:normal;shape-padding:0;shape-margin:0;inline-size:0;isolation:auto;mix-blend-mode:normal;solid-color:#000;solid-opacity:1" d="M346.682 166.563a20 20 0 00-4.631 8.398c-2.859 10.67 3.473 21.635 14.142 24.494l124.897 33.467c10.67 2.86 21.637-3.473 24.496-14.143 1.677-6.261.215-6.947-3.922-11.937a20 20 0 01-19.863 5.744l-124.897-33.467c-7.745-2.075-11.954-8.359-10.222-12.557zM387.818 253.32a20 20 0 00-4.63 8.399c-2.859 10.669 3.473 21.635 14.142 24.494l124.897 33.467c10.67 2.86 21.637-3.473 24.496-14.143A20 20 0 00542.8 287.6c-5.041 5.454-12.69 16.237-19.864 14.315l-124.896-33.467c-8.655-2.32-12.176-7.839-10.223-15.128zM378.084 134.338a20 20 0 00-4.63 8.398c-2.86 10.67 3.473 21.636 14.142 24.494l124.896 33.467.711-18.336-124.896-33.466c-8.847-2.371-12.44-7.528-10.223-14.557z" color="#000" font-weight="400" font-family="sans-serif" overflow="visible" fill="#deddda" stroke-width="40" stroke-linecap="round" transform="translate(76.33 29.857) scale(.83694)"/><path d="M472.704 144.684a24 24 0 0124.052 24.051v113.547a24 24 0 01-24.052 24.052c-13.325 0-42.833-15.643-42.833-28.968v-.358c2.129-4.29 4.112-11.435 0-19.649l9.975-14.706c2.155-6.69 4.668-13.343 0-20.711l4.778-19.358c3.03-4.513 5.14-13.581 0-19.85l4.028-13.999c3.685-12.805 10.727-24.051 24.052-24.051z" fill="#deddda" stroke-width="60" stroke-linecap="round" stroke-linejoin="round" transform="translate(76.33 29.857) scale(.83694)"/><path style="line-height:normal;font-variant-ligatures:normal;font-variant-position:normal;font-variant-caps:normal;font-variant-numeric:normal;font-variant-alternates:normal;font-variant-east-asian:normal;font-feature-settings:normal;font-variation-settings:normal;text-indent:0;text-align:start;text-decoration-line:none;text-decoration-style:solid;text-decoration-color:#000;text-transform:none;text-orientation:mixed;white-space:normal;shape-padding:0;shape-margin:0;inline-size:0;isolation:auto;mix-blend-mode:normal;solid-color:#000;solid-opacity:1" d="M486.988 129.504c-4.587 0-9.189.969-13.318 2.967a28.002 28.002 0 00-10.44 8.747c-2.689 3.717-4.417 8.08-5.304 12.58-.887 4.501-.938 9.119-.938 13.706v185.293c0 8.96.34 18.079 3.313 26.532 2.973 8.453 8.425 16.02 15.54 21.467 11.382 8.71 26.848 11.811 40.718 8.198 12.068-3.144 22.566-11.12 29.996-21.137 7.43-10.017 11.795-21.92 15.83-33.72l25.642-75.007c2.184-6.389 4.335-12.814 5.605-19.445 1.27-6.631 1.654-13.465.704-20.15-1.902-13.368-9.564-25.921-20.925-33.22-8.645-5.552-19.2-8.066-29.419-7.005-10.22 1.06-20.033 5.688-27.353 12.897l.35 43.068v-87.771c0-4.587-.052-9.205-.939-13.705-.886-4.5-2.615-8.864-5.303-12.58a28.002 28.002 0 00-10.44-8.748c-4.13-1.998-8.732-2.967-13.319-2.967z" color="#000" font-weight="400" font-family="sans-serif" overflow="visible" fill="#fff" stroke-width="60" stroke-linecap="round" stroke-linejoin="round" transform="translate(76.33 29.857) scale(.83694)"/><path d="M509.24 225.582s-.23 23.976.192 31.691c.421 7.716 5.396 9.252 5.396 9.252l.043-.105 15.451 7.35-14.523-9.608 4.894-12.242c2.94-6.925.89-12.352-4.125-16.63z" transform="translate(0 -14)" fill="#deddda" stroke-width=".837"/><path style="line-height:normal;font-variant-ligatures:normal;font-variant-position:normal;font-variant-caps:normal;font-variant-numeric:normal;font-variant-alternates:normal;font-variant-east-asian:normal;font-feature-settings:normal;font-variation-settings:normal;text-indent:0;text-align:start;text-decoration-line:none;text-decoration-style:solid;text-decoration-color:#000;text-transform:none;text-orientation:mixed;white-space:normal;shape-padding:0;shape-margin:0;inline-size:0;isolation:auto;mix-blend-mode:normal;solid-color:#000;solid-opacity:1" d="M573.734 230.219a60.417 60.417 0 01-.568 3.578c-1.063 5.55-2.863 10.928-4.691 16.275l-21.461 62.776c-3.377 9.876-7.03 19.839-13.248 28.222-6.219 8.384-15.005 15.058-25.106 17.69-11.608 3.024-24.552.429-34.078-6.862-5.955-4.557-10.518-10.892-13.006-17.966-2.488-7.075-2.773-14.706-2.773-22.205v13.4c0 7.5.285 15.13 2.773 22.205 2.488 7.075 7.05 13.41 13.006 17.967 9.526 7.29 22.47 9.885 34.078 6.861 10.1-2.631 18.887-9.306 25.106-17.69 6.218-8.383 9.871-18.345 13.248-28.222l21.46-62.775c1.829-5.347 3.629-10.726 4.692-16.276 1.063-5.55 1.384-11.269.588-16.863l-.02-.115z" color="#000" font-weight="400" font-family="sans-serif" overflow="visible" fill="#deddda" stroke-width="50.216" stroke-linecap="round" stroke-linejoin="round"/><path d="M516.935 160.445l.159 61.604 9.41 5.916c-3.255-6.415-6.65-56.842 11.076-56.44 0 0-4.487-4.595-7.714-6.569-1.827-1.117-4.43-2.26-6.602-2.814z" fill="#deddda" stroke-width="1.195" transform="translate(76.33 29.857) scale(.83694)"/></g><use xlink:href="#a" transform="matrix(-1 0 0 1 603.693 0)" width="100%" height="100%"/></svg>