<svg version="1.1" viewBox="0.0 0.0 872.0 370.0" fill="none" stroke="none" stroke-linecap="square" stroke-miterlimit="10" width="872" height="370" xmlns:xlink="http://www.w3.org/1999/xlink" xmlns="http://www.w3.org/2000/svg"><path fill="#ffffff" d="M0 0L872.0 0L872.0 370.0L0 370.0L0 0Z" fill-rule="nonzero"/><path stroke="#cccccc" stroke-width="1.0" stroke-linecap="butt" d="M150.5 62.5L150.5 330.5" fill-rule="nonzero"/><path stroke="#cccccc" stroke-width="1.0" stroke-linecap="butt" d="M318.5 62.5L318.5 330.5" fill-rule="nonzero"/><path stroke="#cccccc" stroke-width="1.0" stroke-linecap="butt" d="M487.5 62.5L487.5 330.5" fill-rule="nonzero"/><path stroke="#cccccc" stroke-width="1.0" stroke-linecap="butt" d="M655.5 62.5L655.5 330.5" fill-rule="nonzero"/><path stroke="#e6e6e6" stroke-width="1.0" stroke-linecap="butt" d="M66.5 62.5L66.5 330.5" fill-rule="nonzero"/><path stroke="#e6e6e6" stroke-width="1.0" stroke-linecap="butt" d="M234.5 62.5L234.5 330.5" fill-rule="nonzero"/><path stroke="#e6e6e6" stroke-width="1.0" stroke-linecap="butt" d="M403.5 62.5L403.5 330.5" fill-rule="nonzero"/><path stroke="#e6e6e6" stroke-width="1.0" stroke-linecap="butt" d="M571.5 62.5L571.5 330.5" fill-rule="nonzero"/><path stroke="#cccccc" stroke-width="1.0" stroke-linecap="butt" d="M45.5 314.5L704.5 314.5" fill-rule="nonzero"/><path stroke="#cccccc" stroke-width="1.0" stroke-linecap="butt" d="M45.5 237.5L704.5 237.5" fill-rule="nonzero"/><path stroke="#cccccc" stroke-width="1.0" stroke-linecap="butt" d="M45.5 159.5L704.5 159.5" fill-rule="nonzero"/><path stroke="#cccccc" stroke-width="1.0" stroke-linecap="butt" d="M45.5 81.5L704.5 81.5" fill-rule="nonzero"/><path stroke="#eeeeee" stroke-width="1.0" stroke-linecap="butt" d="M52.35443 310.61353L52.35443 326.61353" fill-rule="nonzero"/><path stroke="#eeeeee" stroke-width="1.0" stroke-linecap="butt" d="M122.463776 283.4082L122.463776 299.4082" fill-rule="nonzero"/><path stroke="#eeeeee" stroke-width="1.0" stroke-linecap="butt" d="M192.3425 256.2029L192.3425 272.2029" fill-rule="nonzero"/><path stroke="#eeeeee" stroke-width="1.0" stroke-linecap="butt" d="M262.45184 228.99759L262.45184 244.99759" fill-rule="nonzero"/><path stroke="#eeeeee" stroke-width="1.0" stroke-linecap="butt" d="M332.7918 201.79227L332.7918 217.79227" fill-rule="nonzero"/><path stroke="#eeeeee" stroke-width="1.0" stroke-linecap="butt" d="M416.96915 174.58696L416.96915 190.58696" fill-rule="nonzero"/><path stroke="#eeeeee" stroke-width="1.0" stroke-linecap="butt" d="M515.2145 143.49516L515.2145 159.49516" fill-rule="nonzero"/><path stroke="#eeeeee" stroke-width="1.0" stroke-linecap="butt" d="M613.45984 112.40338L613.45984 128.40338" fill-rule="nonzero"/><clipPath id="id_0"><path d="M45.5 62.333332L704.7222 62.333332L704.7222 330.5L45.5 330.5L45.5 62.333332Z" clip-rule="nonzero"/></clipPath><path stroke="#3366cc" stroke-width="2.0" stroke-linecap="butt" stroke-opacity="0.4" clip-path="url(#id_0)" d="M0 341.7923L704.7222 89.63931" fill-rule="nonzero"/><path stroke="#dc3912" stroke-width="2.0" stroke-linecap="butt" clip-path="url(#id_0)" d="M80.029175 326.61353L122.463776 326.61353L136.53177 326.61353L143.45045 299.4082L192.3425 299.4082L262.45184 299.4082L332.7918 299.4082L389.2944 299.4082L396.2131 272.2029L403.3624 272.2029L410.51172 244.99759L416.96915 244.99759L438.18646 244.99759L445.10513 190.58696L515.2145 190.58696L522.36383 190.58696L529.2825 159.49516L613.45984 159.49516L648.7451 159.49516L655.8944 128.40338L697.8678 128.40338" fill-rule="nonzero"/><path fill="#3366cc" clip-path="url(#id_0)" d="M56.85443 326.61353C56.85443 329.09882 54.839714 331.11353 52.35443 331.11353C49.86915 331.11353 47.85443 329.09882 47.85443 326.61353C47.85443 324.12823 49.86915 322.11353 52.35443 322.11353C54.839714 322.11353 56.85443 324.12823 56.85443 326.61353Z" fill-rule="nonzero"/><path fill="#3366cc" clip-path="url(#id_0)" d="M126.963776 299.4082C126.963776 301.8935 124.94906 303.9082 122.463776 303.9082C119.9785 303.9082 117.963776 301.8935 117.963776 299.4082C117.963776 296.92294 119.9785 294.9082 122.463776 294.9082C124.94906 294.9082 126.963776 296.92294 126.963776 299.4082Z" fill-rule="nonzero"/><path fill="#3366cc" clip-path="url(#id_0)" d="M196.8425 272.2029C196.8425 274.68817 194.82779 276.7029 192.3425 276.7029C189.85722 276.7029 187.8425 274.68817 187.8425 272.2029C187.8425 269.71762 189.85722 267.7029 192.3425 267.7029C194.82779 267.7029 196.8425 269.71762 196.8425 272.2029Z" fill-rule="nonzero"/><path fill="#3366cc" clip-path="url(#id_0)" d="M266.95184 244.99759C266.95184 247.48286 264.93713 249.49759 262.45184 249.49759C259.96655 249.49759 257.95184 247.48286 257.95184 244.99759C257.95184 242.5123 259.96655 240.49759 262.45184 240.49759C264.93713 240.49759 266.95184 242.5123 266.95184 244.99759Z" fill-rule="nonzero"/><path fill="#3366cc" clip-path="url(#id_0)" d="M337.2918 217.79227C337.2918 220.27756 335.2771 222.29227 332.7918 222.29227C330.30655 222.29227 328.2918 220.27756 328.2918 217.79227C328.2918 215.30699 330.30655 213.29227 332.7918 213.29227C335.2771 213.29227 337.2918 215.30699 337.2918 217.79227Z" fill-rule="nonzero"/><path fill="#3366cc" clip-path="url(#id_0)" d="M421.46915 190.58696C421.46915 193.07224 419.45444 195.08696 416.96915 195.08696C414.4839 195.08696 412.46915 193.07224 412.46915 190.58696C412.46915 188.10167 414.4839 186.08696 416.96915 186.08696C419.45444 186.08696 421.46915 188.10167 421.46915 190.58696Z" fill-rule="nonzero"/><path fill="#3366cc" clip-path="url(#id_0)" d="M519.7145 159.49516C519.7145 161.98045 517.69977 163.99516 515.2145 163.99516C512.7292 163.99516 510.7145 161.98045 510.7145 159.49516C510.7145 157.00989 512.7292 154.99516 515.2145 154.99516C517.69977 154.99516 519.7145 157.00989 519.7145 159.49516Z" fill-rule="nonzero"/><path fill="#3366cc" clip-path="url(#id_0)" d="M617.95984 128.40338C617.95984 130.88866 615.9451 132.90338 613.45984 132.90338C610.97455 132.90338 608.95984 130.88866 608.95984 128.40338C608.95984 125.9181 610.97455 123.90338 613.45984 123.90338C615.9451 123.90338 617.95984 125.9181 617.95984 128.40338Z" fill-rule="nonzero"/><path fill="#3366cc" clip-path="url(#id_0)" d="M702.3678 89.53865C702.3678 92.023926 700.3531 94.03865 697.8678 94.03865C695.3825 94.03865 693.3678 92.023926 693.3678 89.53865C693.3678 87.05337 695.3825 85.03865 697.8678 85.03865C700.3531 85.03865 702.3678 87.05337 702.3678 89.53865Z" fill-rule="nonzero"/><path fill="#000000" fill-opacity="0.0" clip-path="url(#id_0)" d="M83.029175 326.61353C83.029175 328.2704 81.68603 329.61353 80.029175 329.61353C78.37232 329.61353 77.029175 328.2704 77.029175 326.61353C77.029175 324.95667 78.37232 323.61353 80.029175 323.61353C81.68603 323.61353 83.029175 324.95667 83.029175 326.61353Z" fill-rule="nonzero"/><path fill="#000000" fill-opacity="0.0" clip-path="url(#id_0)" d="M125.463776 326.61353C125.463776 328.2704 124.120636 329.61353 122.463776 329.61353C120.80692 329.61353 119.463776 328.2704 119.463776 326.61353C119.463776 324.95667 120.80692 323.61353 122.463776 323.61353C124.120636 323.61353 125.463776 324.95667 125.463776 326.61353Z" fill-rule="nonzero"/><path fill="#000000" fill-opacity="0.0" clip-path="url(#id_0)" d="M139.53177 326.61353C139.53177 328.2704 138.18863 329.61353 136.53177 329.61353C134.87492 329.61353 133.53177 328.2704 133.53177 326.61353C133.53177 324.95667 134.87492 323.61353 136.53177 323.61353C138.18863 323.61353 139.53177 324.95667 139.53177 326.61353Z" fill-rule="nonzero"/><path fill="#000000" fill-opacity="0.0" clip-path="url(#id_0)" d="M146.45045 299.4082C146.45045 301.06506 145.10732 302.4082 143.45045 302.4082C141.79361 302.4082 140.45045 301.06506 140.45045 299.4082C140.45045 297.75137 141.79361 296.4082 143.45045 296.4082C145.10732 296.4082 146.45045 297.75137 146.45045 299.4082Z" fill-rule="nonzero"/><path fill="#000000" fill-opacity="0.0" clip-path="url(#id_0)" d="M195.3425 299.4082C195.3425 301.06506 193.99936 302.4082 192.3425 302.4082C190.68565 302.4082 189.3425 301.06506 189.3425 299.4082C189.3425 297.75137 190.68565 296.4082 192.3425 296.4082C193.99936 296.4082 195.3425 297.75137 195.3425 299.4082Z" fill-rule="nonzero"/><path fill="#000000" fill-opacity="0.0" clip-path="url(#id_0)" d="M265.45184 299.4082C265.45184 301.06506 264.1087 302.4082 262.45184 302.4082C260.79498 302.4082 259.45184 301.06506 259.45184 299.4082C259.45184 297.75137 260.79498 296.4082 262.45184 296.4082C264.1087 296.4082 265.45184 297.75137 265.45184 299.4082Z" fill-rule="nonzero"/><path fill="#000000" fill-opacity="0.0" clip-path="url(#id_0)" d="M335.7918 299.4082C335.7918 301.06506 334.44867 302.4082 332.7918 302.4082C331.13495 302.4082 329.7918 301.06506 329.7918 299.4082C329.7918 297.75137 331.13495 296.4082 332.7918 296.4082C334.44867 296.4082 335.7918 297.75137 335.7918 299.4082Z" fill-rule="nonzero"/><path fill="#000000" fill-opacity="0.0" clip-path="url(#id_0)" d="M392.2944 299.4082C392.2944 301.06506 390.95126 302.4082 389.2944 302.4082C387.63757 302.4082 386.2944 301.06506 386.2944 299.4082C386.2944 297.75137 387.63757 296.4082 389.2944 296.4082C390.95126 296.4082 392.2944 297.75137 392.2944 299.4082Z" fill-rule="nonzero"/><path fill="#000000" fill-opacity="0.0" clip-path="url(#id_0)" d="M399.2131 272.2029C399.2131 273.85974 397.86996 275.2029 396.2131 275.2029C394.55624 275.2029 393.2131 273.85974 393.2131 272.2029C393.2131 270.54605 394.55624 269.2029 396.2131 269.2029C397.86996 269.2029 399.2131 270.54605 399.2131 272.2029Z" fill-rule="nonzero"/><path fill="#000000" fill-opacity="0.0" clip-path="url(#id_0)" d="M406.3624 272.2029C406.3624 273.85974 405.01926 275.2029 403.3624 275.2029C401.70557 275.2029 400.3624 273.85974 400.3624 272.2029C400.3624 270.54605 401.70557 269.2029 403.3624 269.2029C405.01926 269.2029 406.3624 270.54605 406.3624 272.2029Z" fill-rule="nonzero"/><path fill="#000000" fill-opacity="0.0" clip-path="url(#id_0)" d="M413.51172 244.99759C413.51172 246.65443 412.16858 247.99759 410.51172 247.99759C408.85486 247.99759 407.51172 246.65443 407.51172 244.99759C407.51172 243.34073 408.85486 241.99759 410.51172 241.99759C412.16858 241.99759 413.51172 243.34073 413.51172 244.99759Z" fill-rule="nonzero"/><path fill="#000000" fill-opacity="0.0" clip-path="url(#id_0)" d="M419.96915 244.99759C419.96915 246.65443 418.626 247.99759 416.96915 247.99759C415.31232 247.99759 413.96915 246.65443 413.96915 244.99759C413.96915 243.34073 415.31232 241.99759 416.96915 241.99759C418.626 241.99759 419.96915 243.34073 419.96915 244.99759Z" fill-rule="nonzero"/><path fill="#000000" fill-opacity="0.0" clip-path="url(#id_0)" d="M441.18646 244.99759C441.18646 246.65443 439.84332 247.99759 438.18646 247.99759C436.5296 247.99759 435.18646 246.65443 435.18646 244.99759C435.18646 243.34073 436.5296 241.99759 438.18646 241.99759C439.84332 241.99759 441.18646 243.34073 441.18646 244.99759Z" fill-rule="nonzero"/><path fill="#000000" fill-opacity="0.0" clip-path="url(#id_0)" d="M448.10513 190.58696C448.10513 192.2438 446.762 193.58696 445.10513 193.58696C443.4483 193.58696 442.10513 192.2438 442.10513 190.58696C442.10513 188.9301 443.4483 187.58696 445.10513 187.58696C446.762 187.58696 448.10513 188.9301 448.10513 190.58696Z" fill-rule="nonzero"/><path fill="#000000" fill-opacity="0.0" clip-path="url(#id_0)" d="M518.2145 190.58696C518.2145 192.2438 516.87134 193.58696 515.2145 193.58696C513.5576 193.58696 512.2145 192.2438 512.2145 190.58696C512.2145 188.9301 513.5576 187.58696 515.2145 187.58696C516.87134 187.58696 518.2145 188.9301 518.2145 190.58696Z" fill-rule="nonzero"/><path fill="#000000" fill-opacity="0.0" clip-path="url(#id_0)" d="M525.36383 190.58696C525.36383 192.2438 524.0206 193.58696 522.36383 193.58696C520.707 193.58696 519.36383 192.2438 519.36383 190.58696C519.36383 188.9301 520.707 187.58696 522.36383 187.58696C524.0206 187.58696 525.36383 188.9301 525.36383 190.58696Z" fill-rule="nonzero"/><path fill="#000000" fill-opacity="0.0" clip-path="url(#id_0)" d="M532.2825 159.49516C532.2825 161.15202 530.93933 162.49516 529.2825 162.49516C527.6256 162.49516 526.2825 161.15202 526.2825 159.49516C526.2825 157.83832 527.6256 156.49516 529.2825 156.49516C530.93933 156.49516 532.2825 157.83832 532.2825 159.49516Z" fill-rule="nonzero"/><path fill="#000000" fill-opacity="0.0" clip-path="url(#id_0)" d="M616.45984 159.49516C616.45984 161.15202 615.1167 162.49516 613.45984 162.49516C611.803 162.49516 610.45984 161.15202 610.45984 159.49516C610.45984 157.83832 611.803 156.49516 613.45984 156.49516C615.1167 156.49516 616.45984 157.83832 616.45984 159.49516Z" fill-rule="nonzero"/><path fill="#000000" fill-opacity="0.0" clip-path="url(#id_0)" d="M651.7451 159.49516C651.7451 161.15202 650.402 162.49516 648.7451 162.49516C647.08826 162.49516 645.7451 161.15202 645.7451 159.49516C645.7451 157.83832 647.08826 156.49516 648.7451 156.49516C650.402 156.49516 651.7451 157.83832 651.7451 159.49516Z" fill-rule="nonzero"/><path fill="#000000" fill-opacity="0.0" clip-path="url(#id_0)" d="M658.8944 128.40338C658.8944 130.06024 657.5513 131.40338 655.8944 131.40338C654.23755 131.40338 652.8944 130.06024 652.8944 128.40338C652.8944 126.74653 654.23755 125.40338 655.8944 125.40338C657.5513 125.40338 658.8944 126.74653 658.8944 128.40338Z" fill-rule="nonzero"/><path fill="#000000" fill-opacity="0.0" clip-path="url(#id_0)" d="M700.8678 128.40338C700.8678 130.06024 699.52466 131.40338 697.8678 131.40338C696.21094 131.40338 694.8678 130.06024 694.8678 128.40338C694.8678 126.74653 696.21094 125.40338 697.8678 125.40338C699.52466 125.40338 700.8678 126.74653 700.8678 128.40338Z" fill-rule="nonzero"/><path stroke="#ffffff" stroke-width="3.0" stroke-linejoin="round" stroke-linecap="round" d="M49.620056 308.61353L48.54193 308.61353L48.54193 301.39478L46.35443 302.19165L46.35443 301.20728L49.463806 300.0354L49.620056 300.0354L49.620056 308.61353ZM58.57318 300.69165L55.04193 308.61353L53.901306 308.61353L57.41693 300.9729L52.807556 300.9729L52.807556 300.08228L58.57318 300.08228L58.57318 300.69165Z" fill-rule="nonzero"/><path fill="#3366cc" d="M49.620056 308.61353L48.54193 308.61353L48.54193 301.39478L46.35443 302.19165L46.35443 301.20728L49.463806 300.0354L49.620056 300.0354L49.620056 308.61353ZM58.57318 300.69165L55.04193 308.61353L53.901306 308.61353L57.41693 300.9729L52.807556 300.9729L52.807556 300.08228L58.57318 300.08228L58.57318 300.69165Z" fill-rule="nonzero"/><path stroke="#ffffff" stroke-width="3.0" stroke-linejoin="round" stroke-linecap="round" d="M121.76065 281.4082L116.1669 281.4082L116.1669 280.62695L119.120026 277.3457Q119.776276 276.5957 120.026276 276.14258Q120.276276 275.67383 120.276276 275.17383Q120.276276 274.50195 119.870026 274.08008Q119.4794 273.64258 118.7919 273.64258Q117.995026 273.64258 117.5419 274.11133Q117.088776 274.56445 117.088776 275.39258L116.01065 275.39258Q116.01065 274.20508 116.76065 273.48633Q117.526276 272.75195 118.7919 272.75195Q119.995026 272.75195 120.682526 273.37695Q121.370026 274.00195 121.370026 275.04883Q121.370026 276.29883 119.76065 278.04883L117.4794 280.51758L121.76065 280.51758L121.76065 281.4082ZM127.745026 278.54883L128.93253 278.54883L128.93253 279.42383L127.745026 279.42383L127.745026 281.4082L126.6669 281.4082L126.6669 279.42383L122.776276 279.42383L122.776276 278.7832L126.588776 272.87695L127.745026 272.87695L127.745026 278.54883ZM124.01065 278.54883L126.6669 278.54883L126.6669 274.36133L126.526276 274.5957L124.01065 278.54883Z" fill-rule="nonzero"/><path fill="#3366cc" d="M121.76065 281.4082L116.1669 281.4082L116.1669 280.62695L119.120026 277.3457Q119.776276 276.5957 120.026276 276.14258Q120.276276 275.67383 120.276276 275.17383Q120.276276 274.50195 119.870026 274.08008Q119.4794 273.64258 118.7919 273.64258Q117.995026 273.64258 117.5419 274.11133Q117.088776 274.56445 117.088776 275.39258L116.01065 275.39258Q116.01065 274.20508 116.76065 273.48633Q117.526276 272.75195 118.7919 272.75195Q119.995026 272.75195 120.682526 273.37695Q121.370026 274.00195 121.370026 275.04883Q121.370026 276.29883 119.76065 278.04883L117.4794 280.51758L121.76065 280.51758L121.76065 281.4082ZM127.745026 278.54883L128.93253 278.54883L128.93253 279.42383L127.745026 279.42383L127.745026 281.4082L126.6669 281.4082L126.6669 279.42383L122.776276 279.42383L122.776276 278.7832L126.588776 272.87695L127.745026 272.87695L127.745026 278.54883ZM124.01065 278.54883L126.6669 278.54883L126.6669 274.36133L126.526276 274.5957L124.01065 278.54883Z" fill-rule="nonzero"/><path stroke="#ffffff" stroke-width="3.0" stroke-linejoin="round" stroke-linecap="round" d="M187.62375 249.40602L188.43625 249.40602Q189.2175 249.3904 189.655 248.99977Q190.0925 248.60915 190.0925 247.93727Q190.0925 246.43727 188.5925 246.43727Q187.88937 246.43727 187.4675 246.84352Q187.06125 247.24977 187.06125 247.90602L185.9675 247.90602Q185.9675 246.8904 186.70187 246.21852Q187.45187 245.54665 188.5925 245.54665Q189.79562 245.54665 190.48312 246.18727Q191.17062 246.8279 191.17062 247.96852Q191.17062 248.53102 190.81125 249.04665Q190.45187 249.56227 189.82687 249.8279Q190.53 250.04665 190.905 250.56227Q191.29562 251.0779 191.29562 251.8279Q191.29562 252.96852 190.54562 253.65602Q189.79562 254.3279 188.5925 254.3279Q187.405 254.3279 186.63937 253.67165Q185.88937 253.0154 185.88937 251.9529L186.98312 251.9529Q186.98312 252.62477 187.42062 253.03102Q187.85812 253.43727 188.60812 253.43727Q189.38937 253.43727 189.79562 253.03102Q190.2175 252.60915 190.2175 251.84352Q190.2175 251.10915 189.76437 250.71852Q189.31125 250.31227 188.43625 250.29665L187.62375 250.29665L187.62375 249.40602ZM196.60812 254.2029L195.53 254.2029L195.53 246.98415L193.3425 247.78102L193.3425 246.79665L196.45187 245.62477L196.60812 245.62477L196.60812 254.2029Z" fill-rule="nonzero"/><path fill="#3366cc" d="M187.62375 249.40602L188.43625 249.40602Q189.2175 249.3904 189.655 248.99977Q190.0925 248.60915 190.0925 247.93727Q190.0925 246.43727 188.5925 246.43727Q187.88937 246.43727 187.4675 246.84352Q187.06125 247.24977 187.06125 247.90602L185.9675 247.90602Q185.9675 246.8904 186.70187 246.21852Q187.45187 245.54665 188.5925 245.54665Q189.79562 245.54665 190.48312 246.18727Q191.17062 246.8279 191.17062 247.96852Q191.17062 248.53102 190.81125 249.04665Q190.45187 249.56227 189.82687 249.8279Q190.53 250.04665 190.905 250.56227Q191.29562 251.0779 191.29562 251.8279Q191.29562 252.96852 190.54562 253.65602Q189.79562 254.3279 188.5925 254.3279Q187.405 254.3279 186.63937 253.67165Q185.88937 253.0154 185.88937 251.9529L186.98312 251.9529Q186.98312 252.62477 187.42062 253.03102Q187.85812 253.43727 188.60812 253.43727Q189.38937 253.43727 189.79562 253.03102Q190.2175 252.60915 190.2175 251.84352Q190.2175 251.10915 189.76437 250.71852Q189.31125 250.31227 188.43625 250.29665L187.62375 250.29665L187.62375 249.40602ZM196.60812 254.2029L195.53 254.2029L195.53 246.98415L193.3425 247.78102L193.3425 246.79665L196.45187 245.62477L196.60812 245.62477L196.60812 254.2029Z" fill-rule="nonzero"/><path stroke="#ffffff" stroke-width="3.0" stroke-linejoin="round" stroke-linecap="round" d="M257.7331 222.20071L258.5456 222.20071Q259.32684 222.18509 259.76434 221.79446Q260.20184 221.40384 260.20184 220.73196Q260.20184 219.23196 258.70184 219.23196Q257.99872 219.23196 257.57684 219.63821Q257.1706 220.04446 257.1706 220.70071L256.07684 220.70071Q256.07684 219.68509 256.81122 219.01321Q257.56122 218.34134 258.70184 218.34134Q259.90497 218.34134 260.59247 218.98196Q261.27997 219.62259 261.27997 220.76321Q261.27997 221.32571 260.9206 221.84134Q260.56122 222.35696 259.93622 222.62259Q260.63934 222.84134 261.01434 223.35696Q261.40497 223.87259 261.40497 224.62259Q261.40497 225.76321 260.65497 226.45071Q259.90497 227.12259 258.70184 227.12259Q257.51434 227.12259 256.74872 226.46634Q255.99872 225.81009 255.99872 224.74759L257.09247 224.74759Q257.09247 225.41946 257.52997 225.82571Q257.96747 226.23196 258.71747 226.23196Q259.49872 226.23196 259.90497 225.82571Q260.32684 225.40384 260.32684 224.63821Q260.32684 223.90384 259.87372 223.51321Q259.4206 223.10696 258.5456 223.09134L257.7331 223.09134L257.7331 222.20071ZM268.34247 220.68509Q268.34247 221.32571 267.99872 221.82571Q267.65497 222.32571 267.09247 222.60696Q267.74872 222.88821 268.13934 223.45071Q268.52997 223.99759 268.52997 224.70071Q268.52997 225.79446 267.77997 226.46634Q267.0456 227.12259 265.82684 227.12259Q264.59247 227.12259 263.84247 226.46634Q263.1081 225.79446 263.1081 224.70071Q263.1081 223.99759 263.4831 223.45071Q263.8581 222.88821 264.52997 222.60696Q263.96747 222.32571 263.63934 221.82571Q263.31122 221.32571 263.31122 220.68509Q263.31122 219.60696 263.99872 218.98196Q264.68622 218.34134 265.82684 218.34134Q266.95184 218.34134 267.63934 218.98196Q268.34247 219.60696 268.34247 220.68509ZM267.45184 224.66946Q267.45184 223.95071 266.99872 223.51321Q266.5456 223.06009 265.81122 223.06009Q265.07684 223.06009 264.62372 223.51321Q264.18622 223.95071 264.18622 224.68509Q264.18622 225.40384 264.62372 225.82571Q265.06122 226.23196 265.82684 226.23196Q266.57684 226.23196 267.01434 225.81009Q267.45184 225.38821 267.45184 224.66946ZM265.82684 219.23196Q265.18622 219.23196 264.77997 219.63821Q264.38934 220.02884 264.38934 220.71634Q264.38934 221.35696 264.77997 221.76321Q265.1706 222.16946 265.81122 222.16946Q266.46747 222.16946 266.8581 221.76321Q267.24872 221.35696 267.24872 220.71634Q267.24872 220.06009 266.84247 219.65384Q266.43622 219.23196 265.82684 219.23196Z" fill-rule="nonzero"/><path fill="#3366cc" d="M257.7331 222.20071L258.5456 222.20071Q259.32684 222.18509 259.76434 221.79446Q260.20184 221.40384 260.20184 220.73196Q260.20184 219.23196 258.70184 219.23196Q257.99872 219.23196 257.57684 219.63821Q257.1706 220.04446 257.1706 220.70071L256.07684 220.70071Q256.07684 219.68509 256.81122 219.01321Q257.56122 218.34134 258.70184 218.34134Q259.90497 218.34134 260.59247 218.98196Q261.27997 219.62259 261.27997 220.76321Q261.27997 221.32571 260.9206 221.84134Q260.56122 222.35696 259.93622 222.62259Q260.63934 222.84134 261.01434 223.35696Q261.40497 223.87259 261.40497 224.62259Q261.40497 225.76321 260.65497 226.45071Q259.90497 227.12259 258.70184 227.12259Q257.51434 227.12259 256.74872 226.46634Q255.99872 225.81009 255.99872 224.74759L257.09247 224.74759Q257.09247 225.41946 257.52997 225.82571Q257.96747 226.23196 258.71747 226.23196Q259.49872 226.23196 259.90497 225.82571Q260.32684 225.40384 260.32684 224.63821Q260.32684 223.90384 259.87372 223.51321Q259.4206 223.10696 258.5456 223.09134L257.7331 223.09134L257.7331 222.20071ZM268.34247 220.68509Q268.34247 221.32571 267.99872 221.82571Q267.65497 222.32571 267.09247 222.60696Q267.74872 222.88821 268.13934 223.45071Q268.52997 223.99759 268.52997 224.70071Q268.52997 225.79446 267.77997 226.46634Q267.0456 227.12259 265.82684 227.12259Q264.59247 227.12259 263.84247 226.46634Q263.1081 225.79446 263.1081 224.70071Q263.1081 223.99759 263.4831 223.45071Q263.8581 222.88821 264.52997 222.60696Q263.96747 222.32571 263.63934 221.82571Q263.31122 221.32571 263.31122 220.68509Q263.31122 219.60696 263.99872 218.98196Q264.68622 218.34134 265.82684 218.34134Q266.95184 218.34134 267.63934 218.98196Q268.34247 219.60696 268.34247 220.68509ZM267.45184 224.66946Q267.45184 223.95071 266.99872 223.51321Q266.5456 223.06009 265.81122 223.06009Q265.07684 223.06009 264.62372 223.51321Q264.18622 223.95071 264.18622 224.68509Q264.18622 225.40384 264.62372 225.82571Q265.06122 226.23196 265.82684 226.23196Q266.57684 226.23196 267.01434 225.81009Q267.45184 225.38821 267.45184 224.66946ZM265.82684 219.23196Q265.18622 219.23196 264.77997 219.63821Q264.38934 220.02884 264.38934 220.71634Q264.38934 221.35696 264.77997 221.76321Q265.1706 222.16946 265.81122 222.16946Q266.46747 222.16946 266.8581 221.76321Q267.24872 221.35696 267.24872 220.71634Q267.24872 220.06009 266.84247 219.65384Q266.43622 219.23196 265.82684 219.23196Z" fill-rule="nonzero"/><path stroke="#ffffff" stroke-width="3.0" stroke-linejoin="round" stroke-linecap="round" d="M331.07306 196.93289L332.26056 196.93289L332.26056 197.80789L331.07306 197.80789L331.07306 199.79227L329.99493 199.79227L329.99493 197.80789L326.1043 197.80789L326.1043 197.16727L329.9168 191.26102L331.07306 191.26102L331.07306 196.93289ZM327.33868 196.93289L329.99493 196.93289L329.99493 192.74539L329.8543 192.97977L327.33868 196.93289ZM333.99493 195.51102L334.43243 191.26102L338.80743 191.26102L338.80743 192.26102L335.3543 192.26102L335.08868 194.58914Q335.7293 194.21414 336.52618 194.21414Q337.68243 194.21414 338.36993 194.99539Q339.05743 195.76102 339.05743 197.07352Q339.05743 198.38602 338.33868 199.15164Q337.63556 199.91727 336.3543 199.91727Q335.2293 199.91727 334.51056 199.29227Q333.7918 198.65164 333.69806 197.54227L334.71368 197.54227Q334.82306 198.27664 335.24493 198.65164Q335.6668 199.02664 336.3543 199.02664Q337.1043 199.02664 337.5418 198.51102Q337.9793 197.99539 337.9793 197.08914Q337.9793 196.22977 337.51056 195.71414Q337.0418 195.19852 336.26056 195.19852Q335.55743 195.19852 335.15118 195.49539L334.86993 195.72977L333.99493 195.51102Z" fill-rule="nonzero"/><path fill="#3366cc" d="M331.07306 196.93289L332.26056 196.93289L332.26056 197.80789L331.07306 197.80789L331.07306 199.79227L329.99493 199.79227L329.99493 197.80789L326.1043 197.80789L326.1043 197.16727L329.9168 191.26102L331.07306 191.26102L331.07306 196.93289ZM327.33868 196.93289L329.99493 196.93289L329.99493 192.74539L329.8543 192.97977L327.33868 196.93289ZM333.99493 195.51102L334.43243 191.26102L338.80743 191.26102L338.80743 192.26102L335.3543 192.26102L335.08868 194.58914Q335.7293 194.21414 336.52618 194.21414Q337.68243 194.21414 338.36993 194.99539Q339.05743 195.76102 339.05743 197.07352Q339.05743 198.38602 338.33868 199.15164Q337.63556 199.91727 336.3543 199.91727Q335.2293 199.91727 334.51056 199.29227Q333.7918 198.65164 333.69806 197.54227L334.71368 197.54227Q334.82306 198.27664 335.24493 198.65164Q335.6668 199.02664 336.3543 199.02664Q337.1043 199.02664 337.5418 198.51102Q337.9793 197.99539 337.9793 197.08914Q337.9793 196.22977 337.51056 195.71414Q337.0418 195.19852 336.26056 195.19852Q335.55743 195.19852 335.15118 195.49539L334.86993 195.72977L333.99493 195.51102Z" fill-rule="nonzero"/><path stroke="#ffffff" stroke-width="3.0" stroke-linejoin="round" stroke-linecap="round" d="M411.17227 168.30571L411.60977 164.05571L415.98477 164.05571L415.98477 165.05571L412.53165 165.05571L412.26602 167.38383Q412.90665 167.00883 413.70352 167.00883Q414.85977 167.00883 415.54727 167.79008Q416.23477 168.55571 416.23477 169.86821Q416.23477 171.18071 415.51602 171.94633Q414.8129 172.71196 413.53165 172.71196Q412.40665 172.71196 411.6879 172.08696Q410.96915 171.44633 410.8754 170.33696L411.89102 170.33696Q412.0004 171.07133 412.42227 171.44633Q412.84415 171.82133 413.53165 171.82133Q414.28165 171.82133 414.71915 171.30571Q415.15665 170.79008 415.15665 169.88383Q415.15665 169.02446 414.6879 168.50883Q414.21915 167.99321 413.4379 167.99321Q412.73477 167.99321 412.32852 168.29008L412.04727 168.52446L411.17227 168.30571ZM423.26602 172.58696L417.67227 172.58696L417.67227 171.80571L420.6254 168.52446Q421.28165 167.77446 421.53165 167.32133Q421.78165 166.85258 421.78165 166.35258Q421.78165 165.68071 421.3754 165.25883Q420.98477 164.82133 420.29727 164.82133Q419.5004 164.82133 419.04727 165.29008Q418.59415 165.74321 418.59415 166.57133L417.51602 166.57133Q417.51602 165.38383 418.26602 164.66508Q419.03165 163.93071 420.29727 163.93071Q421.5004 163.93071 422.1879 164.55571Q422.8754 165.18071 422.8754 166.22758Q422.8754 167.47758 421.26602 169.22758L418.98477 171.69633L423.26602 171.69633L423.26602 172.58696Z" fill-rule="nonzero"/><path fill="#3366cc" d="M411.17227 168.30571L411.60977 164.05571L415.98477 164.05571L415.98477 165.05571L412.53165 165.05571L412.26602 167.38383Q412.90665 167.00883 413.70352 167.00883Q414.85977 167.00883 415.54727 167.79008Q416.23477 168.55571 416.23477 169.86821Q416.23477 171.18071 415.51602 171.94633Q414.8129 172.71196 413.53165 172.71196Q412.40665 172.71196 411.6879 172.08696Q410.96915 171.44633 410.8754 170.33696L411.89102 170.33696Q412.0004 171.07133 412.42227 171.44633Q412.84415 171.82133 413.53165 171.82133Q414.28165 171.82133 414.71915 171.30571Q415.15665 170.79008 415.15665 169.88383Q415.15665 169.02446 414.6879 168.50883Q414.21915 167.99321 413.4379 167.99321Q412.73477 167.99321 412.32852 168.29008L412.04727 168.52446L411.17227 168.30571ZM423.26602 172.58696L417.67227 172.58696L417.67227 171.80571L420.6254 168.52446Q421.28165 167.77446 421.53165 167.32133Q421.78165 166.85258 421.78165 166.35258Q421.78165 165.68071 421.3754 165.25883Q420.98477 164.82133 420.29727 164.82133Q419.5004 164.82133 419.04727 165.29008Q418.59415 165.74321 418.59415 166.57133L417.51602 166.57133Q417.51602 165.38383 418.26602 164.66508Q419.03165 163.93071 420.29727 163.93071Q421.5004 163.93071 422.1879 164.55571Q422.8754 165.18071 422.8754 166.22758Q422.8754 167.47758 421.26602 169.22758L418.98477 171.69633L423.26602 171.69633L423.26602 172.58696Z" fill-rule="nonzero"/><path stroke="#ffffff" stroke-width="3.0" stroke-linejoin="round" stroke-linecap="round" d="M513.1832 132.96391L513.1832 133.87016L512.9801 133.87016Q511.7145 133.90141 510.9645 134.63579Q510.2145 135.35454 510.0895 136.66704Q510.777 135.90141 511.93326 135.90141Q513.0426 135.90141 513.7145 136.68266Q514.38635 137.46391 514.38635 138.71391Q514.38635 140.02641 513.6676 140.82329Q512.94885 141.62016 511.73013 141.62016Q510.51138 141.62016 509.74576 140.68266Q508.99576 139.72954 508.99576 138.24516L508.99576 137.83891Q508.99576 135.47954 509.99576 134.22954Q510.99576 132.97954 512.9801 132.96391L513.1832 132.96391ZM511.76138 136.80766Q511.19888 136.80766 510.73013 137.13579Q510.26138 137.46391 510.07388 137.97954L510.07388 138.37016Q510.07388 139.43266 510.54263 140.07329Q511.027 140.71391 511.73013 140.71391Q512.4645 140.71391 512.88635 140.18266Q513.3082 139.63579 513.3082 138.76079Q513.3082 137.88579 512.88635 137.35454Q512.4645 136.80766 511.76138 136.80766ZM521.277 137.85454Q521.277 139.76079 520.6207 140.69829Q519.9801 141.62016 518.5895 141.62016Q517.2301 141.62016 516.57385 140.71391Q515.9176 139.80766 515.88635 137.99516L515.88635 136.55766Q515.88635 134.66704 516.527 133.76079Q517.1832 132.83891 518.57385 132.83891Q519.94885 132.83891 520.6051 133.72954Q521.26135 134.60454 521.277 136.44829L521.277 137.85454ZM520.1832 136.37016Q520.1832 134.99516 519.7926 134.37016Q519.4176 133.72954 518.57385 133.72954Q517.7457 133.72954 517.3551 134.37016Q516.9801 134.99516 516.9801 136.29204L516.9801 138.02641Q516.9801 139.40141 517.3707 140.07329Q517.777 140.72954 518.5895 140.72954Q519.38635 140.72954 519.777 140.10454Q520.1676 139.47954 520.1832 138.15141L520.1832 136.37016Z" fill-rule="nonzero"/><path fill="#3366cc" d="M513.1832 132.96391L513.1832 133.87016L512.9801 133.87016Q511.7145 133.90141 510.9645 134.63579Q510.2145 135.35454 510.0895 136.66704Q510.777 135.90141 511.93326 135.90141Q513.0426 135.90141 513.7145 136.68266Q514.38635 137.46391 514.38635 138.71391Q514.38635 140.02641 513.6676 140.82329Q512.94885 141.62016 511.73013 141.62016Q510.51138 141.62016 509.74576 140.68266Q508.99576 139.72954 508.99576 138.24516L508.99576 137.83891Q508.99576 135.47954 509.99576 134.22954Q510.99576 132.97954 512.9801 132.96391L513.1832 132.96391ZM511.76138 136.80766Q511.19888 136.80766 510.73013 137.13579Q510.26138 137.46391 510.07388 137.97954L510.07388 138.37016Q510.07388 139.43266 510.54263 140.07329Q511.027 140.71391 511.73013 140.71391Q512.4645 140.71391 512.88635 140.18266Q513.3082 139.63579 513.3082 138.76079Q513.3082 137.88579 512.88635 137.35454Q512.4645 136.80766 511.76138 136.80766ZM521.277 137.85454Q521.277 139.76079 520.6207 140.69829Q519.9801 141.62016 518.5895 141.62016Q517.2301 141.62016 516.57385 140.71391Q515.9176 139.80766 515.88635 137.99516L515.88635 136.55766Q515.88635 134.66704 516.527 133.76079Q517.1832 132.83891 518.57385 132.83891Q519.94885 132.83891 520.6051 133.72954Q521.26135 134.60454 521.277 136.44829L521.277 137.85454ZM520.1832 136.37016Q520.1832 134.99516 519.7926 134.37016Q519.4176 133.72954 518.57385 133.72954Q517.7457 133.72954 517.3551 134.37016Q516.9801 134.99516 516.9801 136.29204L516.9801 138.02641Q516.9801 139.40141 517.3707 140.07329Q517.777 140.72954 518.5895 140.72954Q519.38635 140.72954 519.777 140.10454Q520.1676 139.47954 520.1832 138.15141L520.1832 136.37016Z" fill-rule="nonzero"/><path stroke="#ffffff" stroke-width="3.0" stroke-linejoin="round" stroke-linecap="round" d="M611.4286 101.87213L611.4286 102.77838L611.22546 102.77838Q609.95984 102.80963 609.20984 103.54401Q608.45984 104.26276 608.33484 105.57526Q609.02234 104.80963 610.1786 104.80963Q611.28796 104.80963 611.95984 105.59088Q612.6317 106.37213 612.6317 107.62213Q612.6317 108.93463 611.91296 109.73151Q611.1942 110.52838 609.97546 110.52838Q608.7567 110.52838 607.9911 109.59088Q607.2411 108.63776 607.2411 107.15338L607.2411 106.74713Q607.2411 104.38776 608.2411 103.13776Q609.2411 101.88776 611.22546 101.87213L611.4286 101.87213ZM610.0067 105.71588Q609.4442 105.71588 608.97546 106.04401Q608.5067 106.37213 608.3192 106.88776L608.3192 107.27838Q608.3192 108.34088 608.78796 108.98151Q609.27234 109.62213 609.97546 109.62213Q610.70984 109.62213 611.1317 109.09088Q611.5536 108.54401 611.5536 107.66901Q611.5536 106.79401 611.1317 106.26276Q610.70984 105.71588 610.0067 105.71588ZM619.35046 104.09088Q619.35046 104.73151 619.0067 105.23151Q618.66296 105.73151 618.10046 106.01276Q618.7567 106.29401 619.14734 106.85651Q619.53796 107.40338 619.53796 108.10651Q619.53796 109.20026 618.78796 109.87213Q618.0536 110.52838 616.83484 110.52838Q615.60046 110.52838 614.85046 109.87213Q614.1161 109.20026 614.1161 108.10651Q614.1161 107.40338 614.4911 106.85651Q614.8661 106.29401 615.53796 106.01276Q614.97546 105.73151 614.64734 105.23151Q614.3192 104.73151 614.3192 104.09088Q614.3192 103.01276 615.0067 102.38776Q615.6942 101.74713 616.83484 101.74713Q617.95984 101.74713 618.64734 102.38776Q619.35046 103.01276 619.35046 104.09088ZM618.45984 108.07526Q618.45984 107.35651 618.0067 106.91901Q617.5536 106.46588 616.8192 106.46588Q616.08484 106.46588 615.6317 106.91901Q615.1942 107.35651 615.1942 108.09088Q615.1942 108.80963 615.6317 109.23151Q616.0692 109.63776 616.83484 109.63776Q617.58484 109.63776 618.02234 109.21588Q618.45984 108.79401 618.45984 108.07526ZM616.83484 102.63776Q616.1942 102.63776 615.78796 103.04401Q615.39734 103.43463 615.39734 104.12213Q615.39734 104.76276 615.78796 105.16901Q616.1786 105.57526 616.8192 105.57526Q617.47546 105.57526 617.8661 105.16901Q618.2567 104.76276 618.2567 104.12213Q618.2567 103.46588 617.85046 103.05963Q617.4442 102.63776 616.83484 102.63776Z" fill-rule="nonzero"/><path fill="#3366cc" d="M611.4286 101.87213L611.4286 102.77838L611.22546 102.77838Q609.95984 102.80963 609.20984 103.54401Q608.45984 104.26276 608.33484 105.57526Q609.02234 104.80963 610.1786 104.80963Q611.28796 104.80963 611.95984 105.59088Q612.6317 106.37213 612.6317 107.62213Q612.6317 108.93463 611.91296 109.73151Q611.1942 110.52838 609.97546 110.52838Q608.7567 110.52838 607.9911 109.59088Q607.2411 108.63776 607.2411 107.15338L607.2411 106.74713Q607.2411 104.38776 608.2411 103.13776Q609.2411 101.88776 611.22546 101.87213L611.4286 101.87213ZM610.0067 105.71588Q609.4442 105.71588 608.97546 106.04401Q608.5067 106.37213 608.3192 106.88776L608.3192 107.27838Q608.3192 108.34088 608.78796 108.98151Q609.27234 109.62213 609.97546 109.62213Q610.70984 109.62213 611.1317 109.09088Q611.5536 108.54401 611.5536 107.66901Q611.5536 106.79401 611.1317 106.26276Q610.70984 105.71588 610.0067 105.71588ZM619.35046 104.09088Q619.35046 104.73151 619.0067 105.23151Q618.66296 105.73151 618.10046 106.01276Q618.7567 106.29401 619.14734 106.85651Q619.53796 107.40338 619.53796 108.10651Q619.53796 109.20026 618.78796 109.87213Q618.0536 110.52838 616.83484 110.52838Q615.60046 110.52838 614.85046 109.87213Q614.1161 109.20026 614.1161 108.10651Q614.1161 107.40338 614.4911 106.85651Q614.8661 106.29401 615.53796 106.01276Q614.97546 105.73151 614.64734 105.23151Q614.3192 104.73151 614.3192 104.09088Q614.3192 103.01276 615.0067 102.38776Q615.6942 101.74713 616.83484 101.74713Q617.95984 101.74713 618.64734 102.38776Q619.35046 103.01276 619.35046 104.09088ZM618.45984 108.07526Q618.45984 107.35651 618.0067 106.91901Q617.5536 106.46588 616.8192 106.46588Q616.08484 106.46588 615.6317 106.91901Q615.1942 107.35651 615.1942 108.09088Q615.1942 108.80963 615.6317 109.23151Q616.0692 109.63776 616.83484 109.63776Q617.58484 109.63776 618.02234 109.21588Q618.45984 108.79401 618.45984 108.07526ZM616.83484 102.63776Q616.1942 102.63776 615.78796 103.04401Q615.39734 103.43463 615.39734 104.12213Q615.39734 104.76276 615.78796 105.16901Q616.1786 105.57526 616.8192 105.57526Q617.47546 105.57526 617.8661 105.16901Q618.2567 104.76276 618.2567 104.12213Q618.2567 103.46588 617.85046 103.05963Q617.4442 102.63776 616.83484 102.63776Z" fill-rule="nonzero"/><path fill="#757575" d="M31.796875 319.4541L26.203125 319.4541L26.203125 318.67285L29.15625 315.3916Q29.8125 314.6416 30.0625 314.18848Q30.3125 313.71973 30.3125 313.21973Q30.3125 312.54785 29.90625 312.12598Q29.515625 311.68848 28.828125 311.68848Q28.03125 311.68848 27.578125 312.15723Q27.125 312.61035 27.125 313.43848L26.046875 313.43848Q26.046875 312.25098 26.796875 311.53223Q27.5625 310.79785 28.828125 310.79785Q30.03125 310.79785 30.71875 311.42285Q31.40625 312.04785 31.40625 313.09473Q31.40625 314.34473 29.796875 316.09473L27.515625 318.56348L31.796875 318.56348L31.796875 319.4541ZM38.5625 315.81348Q38.5625 317.71973 37.90625 318.65723Q37.265625 319.5791 35.875 319.5791Q34.515625 319.5791 33.859375 318.67285Q33.203125 317.7666 33.171875 315.9541L33.171875 314.5166Q33.171875 312.62598 33.8125 311.71973Q34.46875 310.79785 35.859375 310.79785Q37.234375 310.79785 37.890625 311.68848Q38.546875 312.56348 38.5625 314.40723L38.5625 315.81348ZM37.46875 314.3291Q37.46875 312.9541 37.078125 312.3291Q36.703125 311.68848 35.859375 311.68848Q35.03125 311.68848 34.640625 312.3291Q34.265625 312.9541 34.265625 314.25098L34.265625 315.98535Q34.265625 317.36035 34.65625 318.03223Q35.0625 318.68848 35.875 318.68848Q36.671875 318.68848 37.0625 318.06348Q37.453125 317.43848 37.46875 316.11035L37.46875 314.3291Z" fill-rule="nonzero"/><path fill="#757575" d="M30.78125 238.86526L31.96875 238.86526L31.96875 239.74026L30.78125 239.74026L30.78125 241.72464L29.703125 241.72464L29.703125 239.74026L25.8125 239.74026L25.8125 239.09964L29.625 233.19339L30.78125 233.19339L30.78125 238.86526ZM27.046875 238.86526L29.703125 238.86526L29.703125 234.67776L29.5625 234.91214L27.046875 238.86526ZM38.5625 238.08401Q38.5625 239.99026 37.90625 240.92776Q37.265625 241.84964 35.875 241.84964Q34.515625 241.84964 33.859375 240.94339Q33.203125 240.03714 33.171875 238.22464L33.171875 236.78714Q33.171875 234.89651 33.8125 233.99026Q34.46875 233.06839 35.859375 233.06839Q37.234375 233.06839 37.890625 233.95901Q38.546875 234.83401 38.5625 236.67776L38.5625 238.08401ZM37.46875 236.59964Q37.46875 235.22464 37.078125 234.59964Q36.703125 233.95901 35.859375 233.95901Q35.03125 233.95901 34.640625 234.59964Q34.265625 235.22464 34.265625 236.52151L34.265625 238.25589Q34.265625 239.63089 34.65625 240.30276Q35.0625 240.95901 35.875 240.95901Q36.671875 240.95901 37.0625 240.33401Q37.453125 239.70901 37.46875 238.38089L37.46875 236.59964Z" fill-rule="nonzero"/><path fill="#757575" d="M30.46875 155.46391L30.46875 156.37016L30.265625 156.37016Q29.0 156.40141 28.25 157.13579Q27.5 157.85454 27.375 159.16704Q28.0625 158.40141 29.21875 158.40141Q30.328125 158.40141 31.0 159.18266Q31.671875 159.96391 31.671875 161.21391Q31.671875 162.52641 30.953125 163.32329Q30.234375 164.12016 29.015625 164.12016Q27.796875 164.12016 27.03125 163.18266Q26.28125 162.22954 26.28125 160.74516L26.28125 160.33891Q26.28125 157.97954 27.28125 156.72954Q28.28125 155.47954 30.265625 155.46391L30.46875 155.46391ZM29.046875 159.30766Q28.484375 159.30766 28.015625 159.63579Q27.546875 159.96391 27.359375 160.47954L27.359375 160.87016Q27.359375 161.93266 27.828125 162.57329Q28.3125 163.21391 29.015625 163.21391Q29.75 163.21391 30.171875 162.68266Q30.59375 162.13579 30.59375 161.26079Q30.59375 160.38579 30.171875 159.85454Q29.75 159.30766 29.046875 159.30766ZM38.5625 160.35454Q38.5625 162.26079 37.90625 163.19829Q37.265625 164.12016 35.875 164.12016Q34.515625 164.12016 33.859375 163.21391Q33.203125 162.30766 33.171875 160.49516L33.171875 159.05766Q33.171875 157.16704 33.8125 156.26079Q34.46875 155.33891 35.859375 155.33891Q37.234375 155.33891 37.890625 156.22954Q38.546875 157.10454 38.5625 158.94829L38.5625 160.35454ZM37.46875 158.87016Q37.46875 157.49516 37.078125 156.87016Q36.703125 156.22954 35.859375 156.22954Q35.03125 156.22954 34.640625 156.87016Q34.265625 157.49516 34.265625 158.79204L34.265625 160.52641Q34.265625 161.90141 34.65625 162.57329Q35.0625 163.22954 35.875 163.22954Q36.671875 163.22954 37.0625 162.60454Q37.453125 161.97954 37.46875 160.65141L37.46875 158.87016Z" fill-rule="nonzero"/><path fill="#757575" d="M31.390625 79.9532Q31.390625 80.59383 31.046875 81.09383Q30.703125 81.59383 30.140625 81.87508Q30.796875 82.15633 31.1875 82.71883Q31.578125 83.2657 31.578125 83.96883Q31.578125 85.06258 30.828125 85.73445Q30.09375 86.3907 28.875 86.3907Q27.640625 86.3907 26.890625 85.73445Q26.15625 85.06258 26.15625 83.96883Q26.15625 83.2657 26.53125 82.71883Q26.90625 82.15633 27.578125 81.87508Q27.015625 81.59383 26.6875 81.09383Q26.359375 80.59383 26.359375 79.9532Q26.359375 78.87508 27.046875 78.25008Q27.734375 77.60945 28.875 77.60945Q30.0 77.60945 30.6875 78.25008Q31.390625 78.87508 31.390625 79.9532ZM30.5 83.93758Q30.5 83.21883 30.046875 82.78133Q29.59375 82.3282 28.859375 82.3282Q28.125 82.3282 27.671875 82.78133Q27.234375 83.21883 27.234375 83.9532Q27.234375 84.67195 27.671875 85.09383Q28.109375 85.50008 28.875 85.50008Q29.625 85.50008 30.0625 85.0782Q30.5 84.65633 30.5 83.93758ZM28.875 78.50008Q28.234375 78.50008 27.828125 78.90633Q27.4375 79.29695 27.4375 79.98445Q27.4375 80.62508 27.828125 81.03133Q28.21875 81.43758 28.859375 81.43758Q29.515625 81.43758 29.90625 81.03133Q30.296875 80.62508 30.296875 79.98445Q30.296875 79.3282 29.890625 78.92195Q29.484375 78.50008 28.875 78.50008ZM38.5625 82.62508Q38.5625 84.53133 37.90625 85.46883Q37.265625 86.3907 35.875 86.3907Q34.515625 86.3907 33.859375 85.48445Q33.203125 84.5782 33.171875 82.7657L33.171875 81.3282Q33.171875 79.43758 33.8125 78.53133Q34.46875 77.60945 35.859375 77.60945Q37.234375 77.60945 37.890625 78.50008Q38.546875 79.37508 38.5625 81.21883L38.5625 82.62508ZM37.46875 81.1407Q37.46875 79.7657 37.078125 79.1407Q36.703125 78.50008 35.859375 78.50008Q35.03125 78.50008 34.640625 79.1407Q34.265625 79.7657 34.265625 81.06258L34.265625 82.79695Q34.265625 84.17195 34.65625 84.84383Q35.0625 85.50008 35.875 85.50008Q36.671875 85.50008 37.0625 84.87508Q37.453125 84.25008 37.46875 82.92195L37.46875 81.1407Z" fill-rule="nonzero"/><path fill="#757575" d="M129.16226 339.96875L130.30289 339.96875L130.30289 346.01562Q130.30289 347.23438 129.55289 347.9375Q128.81851 348.625 127.59977 348.625Q126.334145 348.625 125.615395 347.96875Q124.91227 347.3125 124.91227 346.14062L126.03727 346.14062Q126.03727 346.875 126.427895 347.29688Q126.834145 347.70312 127.59977 347.70312Q128.30289 347.70312 128.72476 347.26562Q129.16226 346.8125 129.16226 346.03125L129.16226 339.96875ZM136.33414 348.5Q136.24039 348.3125 136.17789 347.82812Q135.42789 348.625 134.38101 348.625Q133.44351 348.625 132.83414 348.09375Q132.24039 347.5625 132.24039 346.73438Q132.24039 345.75 132.99039 345.20312Q133.74039 344.65625 135.11539 344.65625L136.16226 344.65625L136.16226 344.15625Q136.16226 343.59375 135.81851 343.26562Q135.49039 342.92188 134.81851 342.92188Q134.24039 342.92188 133.84976 343.21875Q133.45914 343.5 133.45914 343.92188L132.36539 343.92188Q132.36539 343.4375 132.69351 343.0Q133.03726 342.5625 133.61539 342.3125Q134.19351 342.04688 134.88101 342.04688Q135.99039 342.04688 136.59976 342.59375Q137.22476 343.14062 137.25601 344.09375L137.25601 347.01562Q137.25601 347.89062 137.47476 348.40625L137.47476 348.5L136.33414 348.5ZM134.53726 347.67188Q135.05289 347.67188 135.50601 347.40625Q135.95914 347.14062 136.16226 346.71875L136.16226 345.42188L135.31851 345.42188Q133.31851 345.42188 133.31851 346.59375Q133.31851 347.09375 133.66226 347.39062Q134.00601 347.67188 134.53726 347.67188ZM140.44351 342.15625L140.47476 342.95312Q141.20914 342.04688 142.38101 342.04688Q144.39664 342.04688 144.41226 344.3125L144.41226 348.5L143.31851 348.5L143.31851 344.29688Q143.31851 343.625 143.00601 343.29688Q142.70914 342.96875 142.05289 342.96875Q141.52164 342.96875 141.11539 343.25Q140.72476 343.53125 140.50601 343.98438L140.50601 348.5L139.42789 348.5L139.42789 342.15625L140.44351 342.15625ZM154.89664 348.5L149.30289 348.5L149.30289 347.71875L152.25601 344.4375Q152.91226 343.6875 153.16226 343.23438Q153.41226 342.76562 153.41226 342.26562Q153.41226 341.59375 153.00601 341.17188Q152.61539 340.73438 151.92789 340.73438Q151.13101 340.73438 150.67789 341.20312Q150.22476 341.65625 150.22476 342.48438L149.14664 342.48438Q149.14664 341.29688 149.89664 340.57812Q150.66226 339.84375 151.92789 339.84375Q153.13101 339.84375 153.81851 340.46875Q154.50601 341.09375 154.50601 342.14062Q154.50601 343.39062 152.89664 345.14062L150.61539 347.60938L154.89664 347.60938L154.89664 348.5ZM161.66226 344.85938Q161.66226 346.76562 161.00601 347.70312Q160.36539 348.625 158.97476 348.625Q157.61539 348.625 156.95914 347.71875Q156.30289 346.8125 156.27164 345.0L156.27164 343.5625Q156.27164 341.67188 156.91226 340.76562Q157.56851 339.84375 158.95914 339.84375Q160.33414 339.84375 160.99039 340.73438Q161.64664 341.60938 161.66226 343.45312L161.66226 344.85938ZM160.56851 343.375Q160.56851 342.0 160.17789 341.375Q159.80289 340.73438 158.95914 340.73438Q158.13101 340.73438 157.74039 341.375Q157.36539 342.0 157.36539 343.29688L157.36539 345.03125Q157.36539 346.40625 157.75601 347.07812Q158.16226 347.73438 158.97476 347.73438Q159.77164 347.73438 160.16226 347.10938Q160.55289 346.48438 160.56851 345.15625L160.56851 343.375ZM166.86539 348.5L165.78726 348.5L165.78726 341.28125L163.59976 342.07812L163.59976 341.09375L166.70914 339.92188L166.86539 339.92188L166.86539 348.5ZM174.88101 345.64062L176.06851 345.64062L176.06851 346.51562L174.88101 346.51562L174.88101 348.5L173.80289 348.5L173.80289 346.51562L169.91226 346.51562L169.91226 345.875L173.72476 339.96875L174.88101 339.96875L174.88101 345.64062ZM171.14664 345.64062L173.80289 345.64062L173.80289 341.45312L173.66226 341.6875L171.14664 345.64062Z" fill-rule="nonzero"/><path fill="#757575" d="M297.51694 339.96875L298.65756 339.96875L298.65756 346.01562Q298.65756 347.23438 297.90756 347.9375Q297.1732 348.625 295.95444 348.625Q294.6888 348.625 293.97006 347.96875Q293.26694 347.3125 293.26694 346.14062L294.39194 346.14062Q294.39194 346.875 294.78256 347.29688Q295.1888 347.70312 295.95444 347.70312Q296.65756 347.70312 297.07944 347.26562Q297.51694 346.8125 297.51694 346.03125L297.51694 339.96875ZM304.6888 348.5Q304.59506 348.3125 304.53256 347.82812Q303.78256 348.625 302.7357 348.625Q301.7982 348.625 301.1888 348.09375Q300.59506 347.5625 300.59506 346.73438Q300.59506 345.75 301.34506 345.20312Q302.09506 344.65625 303.47006 344.65625L304.51694 344.65625L304.51694 344.15625Q304.51694 343.59375 304.1732 343.26562Q303.84506 342.92188 303.1732 342.92188Q302.59506 342.92188 302.20444 343.21875Q301.8138 343.5 301.8138 343.92188L300.72006 343.92188Q300.72006 343.4375 301.0482 343.0Q301.39194 342.5625 301.97006 342.3125Q302.5482 342.04688 303.2357 342.04688Q304.34506 342.04688 304.95444 342.59375Q305.57944 343.14062 305.6107 344.09375L305.6107 347.01562Q305.6107 347.89062 305.82944 348.40625L305.82944 348.5L304.6888 348.5ZM302.89194 347.67188Q303.40756 347.67188 303.8607 347.40625Q304.3138 347.14062 304.51694 346.71875L304.51694 345.42188L303.6732 345.42188Q301.6732 345.42188 301.6732 346.59375Q301.6732 347.09375 302.01694 347.39062Q302.3607 347.67188 302.89194 347.67188ZM308.7982 342.15625L308.82944 342.95312Q309.5638 342.04688 310.7357 342.04688Q312.7513 342.04688 312.76694 344.3125L312.76694 348.5L311.6732 348.5L311.6732 344.29688Q311.6732 343.625 311.3607 343.29688Q311.0638 342.96875 310.40756 342.96875Q309.8763 342.96875 309.47006 343.25Q309.07944 343.53125 308.8607 343.98438L308.8607 348.5L307.78256 348.5L307.78256 342.15625L308.7982 342.15625ZM323.2513 348.5L317.65756 348.5L317.65756 347.71875L320.6107 344.4375Q321.26694 343.6875 321.51694 343.23438Q321.76694 342.76562 321.76694 342.26562Q321.76694 341.59375 321.3607 341.17188Q320.97006 340.73438 320.28256 340.73438Q319.4857 340.73438 319.03256 341.20312Q318.57944 341.65625 318.57944 342.48438L317.5013 342.48438Q317.5013 341.29688 318.2513 340.57812Q319.01694 339.84375 320.28256 339.84375Q321.4857 339.84375 322.1732 340.46875Q322.8607 341.09375 322.8607 342.14062Q322.8607 343.39062 321.2513 345.14062L318.97006 347.60938L323.2513 347.60938L323.2513 348.5ZM330.01694 344.85938Q330.01694 346.76562 329.3607 347.70312Q328.72006 348.625 327.32944 348.625Q325.97006 348.625 325.3138 347.71875Q324.65756 346.8125 324.6263 345.0L324.6263 343.5625Q324.6263 341.67188 325.26694 340.76562Q325.9232 339.84375 327.3138 339.84375Q328.6888 339.84375 329.34506 340.73438Q330.0013 341.60938 330.01694 343.45312L330.01694 344.85938ZM328.9232 343.375Q328.9232 342.0 328.53256 341.375Q328.15756 340.73438 327.3138 340.73438Q326.4857 340.73438 326.09506 341.375Q325.72006 342.0 325.72006 343.29688L325.72006 345.03125Q325.72006 346.40625 326.1107 347.07812Q326.51694 347.73438 327.32944 347.73438Q328.1263 347.73438 328.51694 347.10938Q328.90756 346.48438 328.9232 345.15625L328.9232 343.375ZM335.22006 348.5L334.14194 348.5L334.14194 341.28125L331.95444 342.07812L331.95444 341.09375L335.0638 339.92188L335.22006 339.92188L335.22006 348.5ZM342.9232 339.96875L342.9232 340.875L342.72006 340.875Q341.45444 340.90625 340.70444 341.64062Q339.95444 342.35938 339.82944 343.67188Q340.51694 342.90625 341.6732 342.90625Q342.78256 342.90625 343.45444 343.6875Q344.1263 344.46875 344.1263 345.71875Q344.1263 347.03125 343.40756 347.82812Q342.6888 348.625 341.47006 348.625Q340.2513 348.625 339.4857 347.6875Q338.7357 346.73438 338.7357 345.25L338.7357 344.84375Q338.7357 342.48438 339.7357 341.23438Q340.7357 339.98438 342.72006 339.96875L342.9232 339.96875ZM341.5013 343.8125Q340.9388 343.8125 340.47006 344.14062Q340.0013 344.46875 339.8138 344.98438L339.8138 345.375Q339.8138 346.4375 340.28256 347.07812Q340.76694 347.71875 341.47006 347.71875Q342.20444 347.71875 342.6263 347.1875Q343.0482 346.64062 343.0482 345.76562Q343.0482 344.89062 342.6263 344.35938Q342.20444 343.8125 341.5013 343.8125Z" fill-rule="nonzero"/><path fill="#757575" d="M466.10226 339.96875L467.2429 339.96875L467.2429 346.01562Q467.2429 347.23438 466.4929 347.9375Q465.7585 348.625 464.53976 348.625Q463.27414 348.625 462.5554 347.96875Q461.85226 347.3125 461.85226 346.14062L462.97726 346.14062Q462.97726 346.875 463.3679 347.29688Q463.77414 347.70312 464.53976 347.70312Q465.2429 347.70312 465.66476 347.26562Q466.10226 346.8125 466.10226 346.03125L466.10226 339.96875ZM473.27414 348.5Q473.1804 348.3125 473.1179 347.82812Q472.3679 348.625 471.321 348.625Q470.3835 348.625 469.77414 348.09375Q469.1804 347.5625 469.1804 346.73438Q469.1804 345.75 469.9304 345.20312Q470.6804 344.65625 472.0554 344.65625L473.10226 344.65625L473.10226 344.15625Q473.10226 343.59375 472.7585 343.26562Q472.4304 342.92188 471.7585 342.92188Q471.1804 342.92188 470.78976 343.21875Q470.39914 343.5 470.39914 343.92188L469.3054 343.92188Q469.3054 343.4375 469.6335 343.0Q469.97726 342.5625 470.5554 342.3125Q471.1335 342.04688 471.821 342.04688Q472.9304 342.04688 473.53976 342.59375Q474.16476 343.14062 474.196 344.09375L474.196 347.01562Q474.196 347.89062 474.41476 348.40625L474.41476 348.5L473.27414 348.5ZM471.47726 347.67188Q471.9929 347.67188 472.446 347.40625Q472.89914 347.14062 473.10226 346.71875L473.10226 345.42188L472.2585 345.42188Q470.2585 345.42188 470.2585 346.59375Q470.2585 347.09375 470.60226 347.39062Q470.946 347.67188 471.47726 347.67188ZM477.3835 342.15625L477.41476 342.95312Q478.14914 342.04688 479.321 342.04688Q481.33664 342.04688 481.35226 344.3125L481.35226 348.5L480.2585 348.5L480.2585 344.29688Q480.2585 343.625 479.946 343.29688Q479.64914 342.96875 478.9929 342.96875Q478.46164 342.96875 478.0554 343.25Q477.66476 343.53125 477.446 343.98438L477.446 348.5L476.3679 348.5L476.3679 342.15625L477.3835 342.15625ZM491.83664 348.5L486.2429 348.5L486.2429 347.71875L489.196 344.4375Q489.85226 343.6875 490.10226 343.23438Q490.35226 342.76562 490.35226 342.26562Q490.35226 341.59375 489.946 341.17188Q489.5554 340.73438 488.8679 340.73438Q488.071 340.73438 487.6179 341.20312Q487.16476 341.65625 487.16476 342.48438L486.08664 342.48438Q486.08664 341.29688 486.83664 340.57812Q487.60226 339.84375 488.8679 339.84375Q490.071 339.84375 490.7585 340.46875Q491.446 341.09375 491.446 342.14062Q491.446 343.39062 489.83664 345.14062L487.5554 347.60938L491.83664 347.60938L491.83664 348.5ZM498.60226 344.85938Q498.60226 346.76562 497.946 347.70312Q497.3054 348.625 495.91476 348.625Q494.5554 348.625 493.89914 347.71875Q493.2429 346.8125 493.21164 345.0L493.21164 343.5625Q493.21164 341.67188 493.85226 340.76562Q494.5085 339.84375 495.89914 339.84375Q497.27414 339.84375 497.9304 340.73438Q498.58664 341.60938 498.60226 343.45312L498.60226 344.85938ZM497.5085 343.375Q497.5085 342.0 497.1179 341.375Q496.7429 340.73438 495.89914 340.73438Q495.071 340.73438 494.6804 341.375Q494.3054 342.0 494.3054 343.29688L494.3054 345.03125Q494.3054 346.40625 494.696 347.07812Q495.10226 347.73438 495.91476 347.73438Q496.71164 347.73438 497.10226 347.10938Q497.4929 346.48438 497.5085 345.15625L497.5085 343.375ZM503.8054 348.5L502.72726 348.5L502.72726 341.28125L500.53976 342.07812L500.53976 341.09375L503.64914 339.92188L503.8054 339.92188L503.8054 348.5ZM512.4304 342.1875Q512.4304 342.82812 512.0867 343.32812Q511.7429 343.82812 511.1804 344.10938Q511.83664 344.39062 512.2273 344.95312Q512.6179 345.5 512.6179 346.20312Q512.6179 347.29688 511.8679 347.96875Q511.1335 348.625 509.91476 348.625Q508.6804 348.625 507.9304 347.96875Q507.196 347.29688 507.196 346.20312Q507.196 345.5 507.571 344.95312Q507.946 344.39062 508.6179 344.10938Q508.0554 343.82812 507.72726 343.32812Q507.39914 342.82812 507.39914 342.1875Q507.39914 341.10938 508.08664 340.48438Q508.77414 339.84375 509.91476 339.84375Q511.03976 339.84375 511.72726 340.48438Q512.4304 341.10938 512.4304 342.1875ZM511.53976 346.17188Q511.53976 345.45312 511.08664 345.01562Q510.6335 344.5625 509.89914 344.5625Q509.16476 344.5625 508.71164 345.01562Q508.27414 345.45312 508.27414 346.1875Q508.27414 346.90625 508.71164 347.32812Q509.14914 347.73438 509.91476 347.73438Q510.66476 347.73438 511.10226 347.3125Q511.53976 346.89062 511.53976 346.17188ZM509.91476 340.73438Q509.27414 340.73438 508.8679 341.14062Q508.47726 341.53125 508.47726 342.21875Q508.47726 342.85938 508.8679 343.26562Q509.2585 343.67188 509.89914 343.67188Q510.5554 343.67188 510.946 343.26562Q511.33664 342.85938 511.33664 342.21875Q511.33664 341.5625 510.9304 341.15625Q510.52414 340.73438 509.91476 340.73438Z" fill-rule="nonzero"/><path fill="#757575" d="M634.4569 339.96875L635.59753 339.96875L635.59753 346.01562Q635.59753 347.23438 634.84753 347.9375Q634.11316 348.625 632.8944 348.625Q631.6288 348.625 630.91003 347.96875Q630.2069 347.3125 630.2069 346.14062L631.3319 346.14062Q631.3319 346.875 631.72253 347.29688Q632.1288 347.70312 632.8944 347.70312Q633.59753 347.70312 634.0194 347.26562Q634.4569 346.8125 634.4569 346.03125L634.4569 339.96875ZM641.6288 348.5Q641.53503 348.3125 641.47253 347.82812Q640.72253 348.625 639.67566 348.625Q638.73816 348.625 638.1288 348.09375Q637.53503 347.5625 637.53503 346.73438Q637.53503 345.75 638.28503 345.20312Q639.03503 344.65625 640.41003 344.65625L641.4569 344.65625L641.4569 344.15625Q641.4569 343.59375 641.11316 343.26562Q640.78503 342.92188 640.11316 342.92188Q639.53503 342.92188 639.1444 343.21875Q638.7538 343.5 638.7538 343.92188L637.66003 343.92188Q637.66003 343.4375 637.98816 343.0Q638.3319 342.5625 638.91003 342.3125Q639.48816 342.04688 640.17566 342.04688Q641.28503 342.04688 641.8944 342.59375Q642.5194 343.14062 642.55066 344.09375L642.55066 347.01562Q642.55066 347.89062 642.7694 348.40625L642.7694 348.5L641.6288 348.5ZM639.8319 347.67188Q640.34753 347.67188 640.80066 347.40625Q641.2538 347.14062 641.4569 346.71875L641.4569 345.42188L640.61316 345.42188Q638.61316 345.42188 638.61316 346.59375Q638.61316 347.09375 638.9569 347.39062Q639.30066 347.67188 639.8319 347.67188ZM645.73816 342.15625L645.7694 342.95312Q646.5038 342.04688 647.67566 342.04688Q649.6913 342.04688 649.7069 344.3125L649.7069 348.5L648.61316 348.5L648.61316 344.29688Q648.61316 343.625 648.30066 343.29688Q648.0038 342.96875 647.34753 342.96875Q646.8163 342.96875 646.41003 343.25Q646.0194 343.53125 645.80066 343.98438L645.80066 348.5L644.72253 348.5L644.72253 342.15625L645.73816 342.15625ZM660.1913 348.5L654.59753 348.5L654.59753 347.71875L657.55066 344.4375Q658.2069 343.6875 658.4569 343.23438Q658.7069 342.76562 658.7069 342.26562Q658.7069 341.59375 658.30066 341.17188Q657.91003 340.73438 657.22253 340.73438Q656.42566 340.73438 655.97253 341.20312Q655.5194 341.65625 655.5194 342.48438L654.4413 342.48438Q654.4413 341.29688 655.1913 340.57812Q655.9569 339.84375 657.22253 339.84375Q658.42566 339.84375 659.11316 340.46875Q659.80066 341.09375 659.80066 342.14062Q659.80066 343.39062 658.1913 345.14062L655.91003 347.60938L660.1913 347.60938L660.1913 348.5ZM666.9569 344.85938Q666.9569 346.76562 666.30066 347.70312Q665.66003 348.625 664.2694 348.625Q662.91003 348.625 662.2538 347.71875Q661.59753 346.8125 661.5663 345.0L661.5663 343.5625Q661.5663 341.67188 662.2069 340.76562Q662.86316 339.84375 664.2538 339.84375Q665.6288 339.84375 666.28503 340.73438Q666.9413 341.60938 666.9569 343.45312L666.9569 344.85938ZM665.86316 343.375Q665.86316 342.0 665.47253 341.375Q665.09753 340.73438 664.2538 340.73438Q663.42566 340.73438 663.03503 341.375Q662.66003 342.0 662.66003 343.29688L662.66003 345.03125Q662.66003 346.40625 663.05066 347.07812Q663.4569 347.73438 664.2694 347.73438Q665.0663 347.73438 665.4569 347.10938Q665.84753 346.48438 665.86316 345.15625L665.86316 343.375ZM674.1913 348.5L668.59753 348.5L668.59753 347.71875L671.55066 344.4375Q672.2069 343.6875 672.4569 343.23438Q672.7069 342.76562 672.7069 342.26562Q672.7069 341.59375 672.30066 341.17188Q671.91003 340.73438 671.22253 340.73438Q670.42566 340.73438 669.97253 341.20312Q669.5194 341.65625 669.5194 342.48438L668.4413 342.48438Q668.4413 341.29688 669.1913 340.57812Q669.9569 339.84375 671.22253 339.84375Q672.42566 339.84375 673.11316 340.46875Q673.80066 341.09375 673.80066 342.14062Q673.80066 343.39062 672.1913 345.14062L669.91003 347.60938L674.1913 347.60938L674.1913 348.5ZM680.9569 344.85938Q680.9569 346.76562 680.30066 347.70312Q679.66003 348.625 678.2694 348.625Q676.91003 348.625 676.2538 347.71875Q675.59753 346.8125 675.5663 345.0L675.5663 343.5625Q675.5663 341.67188 676.2069 340.76562Q676.86316 339.84375 678.2538 339.84375Q679.6288 339.84375 680.28503 340.73438Q680.9413 341.60938 680.9569 343.45312L680.9569 344.85938ZM679.86316 343.375Q679.86316 342.0 679.47253 341.375Q679.09753 340.73438 678.2538 340.73438Q677.42566 340.73438 677.03503 341.375Q676.66003 342.0 676.66003 343.29688L676.66003 345.03125Q676.66003 346.40625 677.05066 347.07812Q677.4569 347.73438 678.2694 347.73438Q679.0663 347.73438 679.4569 347.10938Q679.84753 346.48438 679.86316 345.15625L679.86316 343.375Z" fill-rule="nonzero"/><path fill="#3366cc" d="M736.5 62.333332C736.5 65.64704 733.8137 68.333336 730.5 68.333336C727.1863 68.333336 724.5 65.64704 724.5 62.333332C724.5 59.019627 727.1863 56.333332 730.5 56.333332C733.8137 56.333332 736.5 59.019627 736.5 62.333332Z" fill-rule="nonzero"/><path fill="#757575" d="M750.2031 63.06771L746.6094 63.06771L746.6094 66.833336L745.4844 66.833336L745.4844 58.302086L750.78125 58.302086L750.78125 59.22396L746.6094 59.22396L746.6094 62.145836L750.2031 62.145836L750.2031 63.06771ZM753.5 66.833336L752.4219 66.833336L752.4219 60.489586L753.5 60.489586L753.5 66.833336ZM752.3281 58.81771Q752.3281 58.552086 752.4844 58.364586Q752.65625 58.177086 752.96875 58.177086Q753.28125 58.177086 753.4375 58.364586Q753.6094 58.552086 753.6094 58.81771Q753.6094 59.06771 753.4375 59.25521Q753.28125 59.427086 752.96875 59.427086Q752.65625 59.427086 752.4844 59.25521Q752.3281 59.06771 752.3281 58.81771ZM758.3906 61.458336Q758.1406 61.427086 757.8594 61.427086Q756.78125 61.427086 756.40625 62.333336L756.40625 66.833336L755.3281 66.833336L755.3281 60.489586L756.375 60.489586L756.3906 61.22396Q756.9219 60.38021 757.90625 60.38021Q758.21875 60.38021 758.3906 60.458336L758.3906 61.458336ZM761.9531 66.958336Q760.65625 66.958336 759.84375 66.114586Q759.0469 65.25521 759.0469 63.833336L759.0469 63.645836Q759.0469 62.69271 759.40625 61.958336Q759.7656 61.208336 760.40625 60.802086Q761.0625 60.38021 761.8125 60.38021Q763.0469 60.38021 763.7344 61.19271Q764.4219 62.00521 764.4219 63.520836L764.4219 63.97396L760.125 63.97396Q760.15625 64.91146 760.6719 65.489586Q761.2031 66.06771 762.0156 66.06771Q762.5781 66.06771 762.96875 65.833336Q763.375 65.59896 763.6875 65.208336L764.34375 65.72396Q763.5469 66.958336 761.9531 66.958336ZM761.8125 61.270836Q761.15625 61.270836 760.7031 61.75521Q760.2656 62.22396 760.1719 63.083336L763.34375 63.083336L763.34375 63.00521Q763.2969 62.177086 762.8906 61.72396Q762.5 61.270836 761.8125 61.270836ZM765.8594 66.833336L765.8594 61.333336L764.8594 61.333336L764.8594 60.489586L765.8594 60.489586L765.8594 59.84896Q765.8594 58.81771 766.3906 58.270836Q766.9375 57.708336 767.9375 57.708336Q768.3125 57.708336 768.6875 57.802086L768.625 58.69271Q768.34375 58.63021 768.0469 58.63021Q767.5156 58.63021 767.21875 58.94271Q766.9375 59.25521 766.9375 59.81771L766.9375 60.489586L768.2969 60.489586L768.2969 61.333336L766.9375 61.333336L766.9375 66.833336L765.8594 66.833336ZM769.03125 63.59896Q769.03125 62.677086 769.3906 61.927086Q769.7656 61.177086 770.4219 60.78646Q771.0781 60.38021 771.90625 60.38021Q773.2031 60.38021 774.0 61.270836Q774.8125 62.16146 774.8125 63.66146L774.8125 63.739586Q774.8125 64.66146 774.4531 65.395836Q774.09375 66.13021 773.4375 66.552086Q772.78125 66.958336 771.9219 66.958336Q770.6406 66.958336 769.8281 66.06771Q769.03125 65.16146 769.03125 63.677086L769.03125 63.59896ZM770.125 63.739586Q770.125 64.78646 770.6094 65.427086Q771.1094 66.06771 771.9219 66.06771Q772.75 66.06771 773.2344 65.427086Q773.71875 64.770836 773.71875 63.59896Q773.71875 62.56771 773.21875 61.927086Q772.7344 61.270836 771.90625 61.270836Q771.1094 61.270836 770.6094 61.91146Q770.125 62.53646 770.125 63.739586ZM778.4531 62.802086L779.8594 60.489586L781.125 60.489586L779.0469 63.63021L781.1875 66.833336L779.9375 66.833336L778.46875 64.458336L777.0 66.833336L775.7344 66.833336L777.875 63.63021L775.8125 60.489586L777.0625 60.489586L778.4531 62.802086ZM790.3125 62.895836L786.6094 62.895836L786.6094 65.91146L790.90625 65.91146L790.90625 66.833336L785.4844 66.833336L785.4844 58.302086L790.8594 58.302086L790.8594 59.22396L786.6094 59.22396L786.6094 61.97396L790.3125 61.97396L790.3125 62.895836ZM795.0 63.03646Q793.5625 62.614586 792.8906 62.00521Q792.2344 61.395836 792.2344 60.50521Q792.2344 59.50521 793.03125 58.84896Q793.84375 58.177086 795.1406 58.177086Q796.0156 58.177086 796.7031 58.520836Q797.3906 58.864586 797.7656 59.458336Q798.15625 60.052086 798.15625 60.770836L797.0156 60.770836Q797.0156 59.989586 796.5156 59.552086Q796.03125 59.114586 795.1406 59.114586Q794.3125 59.114586 793.84375 59.489586Q793.375 59.84896 793.375 60.489586Q793.375 61.020836 793.8125 61.38021Q794.2656 61.739586 795.3281 62.03646Q796.3906 62.333336 796.9844 62.69271Q797.59375 63.052086 797.875 63.53646Q798.1719 64.020836 798.1719 64.66146Q798.1719 65.708336 797.3594 66.333336Q796.5469 66.958336 795.2031 66.958336Q794.3125 66.958336 793.5469 66.614586Q792.7969 66.270836 792.375 65.69271Q791.96875 65.09896 791.96875 64.364586L793.09375 64.364586Q793.09375 65.13021 793.6719 65.583336Q794.25 66.03646 795.2031 66.03646Q796.09375 66.03646 796.5625 65.677086Q797.03125 65.302086 797.03125 64.677086Q797.03125 64.052086 796.59375 63.708336Q796.15625 63.364586 795.0 63.03646ZM802.625 63.38021L800.6094 63.38021L800.6094 66.833336L799.4844 66.833336L799.4844 58.302086L802.3125 58.302086Q803.75 58.302086 804.5156 58.958336Q805.2969 59.614586 805.2969 60.864586Q805.2969 61.66146 804.8594 62.25521Q804.4375 62.84896 803.6719 63.145836L805.6719 66.75521L805.6719 66.833336L804.46875 66.833336L802.625 63.38021ZM800.6094 62.458336L802.34375 62.458336Q803.1875 62.458336 803.6719 62.03646Q804.1719 61.59896 804.1719 60.864586Q804.1719 60.083336 803.7031 59.66146Q803.2344 59.239586 802.34375 59.22396L800.6094 59.22396L800.6094 62.458336ZM812.3906 61.458336Q812.1406 61.427086 811.8594 61.427086Q810.78125 61.427086 810.40625 62.333336L810.40625 66.833336L809.3281 66.833336L809.3281 60.489586L810.375 60.489586L810.3906 61.22396Q810.9219 60.38021 811.90625 60.38021Q812.21875 60.38021 812.3906 60.458336L812.3906 61.458336ZM815.9531 66.958336Q814.65625 66.958336 813.84375 66.114586Q813.0469 65.25521 813.0469 63.833336L813.0469 63.645836Q813.0469 62.69271 813.40625 61.958336Q813.7656 61.208336 814.40625 60.802086Q815.0625 60.38021 815.8125 60.38021Q817.0469 60.38021 817.7344 61.19271Q818.4219 62.00521 818.4219 63.520836L818.4219 63.97396L814.125 63.97396Q814.15625 64.91146 814.6719 65.489586Q815.2031 66.06771 816.0156 66.06771Q816.5781 66.06771 816.96875 65.833336Q817.375 65.59896 817.6875 65.208336L818.34375 65.72396Q817.5469 66.958336 815.9531 66.958336ZM815.8125 61.270836Q815.15625 61.270836 814.7031 61.75521Q814.2656 62.22396 814.1719 63.083336L817.34375 63.083336L817.34375 63.00521Q817.2969 62.177086 816.8906 61.72396Q816.5 61.270836 815.8125 61.270836ZM820.5 66.833336L819.4219 66.833336L819.4219 57.833336L820.5 57.833336L820.5 66.833336ZM824.9531 66.958336Q823.65625 66.958336 822.84375 66.114586Q822.0469 65.25521 822.0469 63.833336L822.0469 63.645836Q822.0469 62.69271 822.40625 61.958336Q822.7656 61.208336 823.40625 60.802086Q824.0625 60.38021 824.8125 60.38021Q826.0469 60.38021 826.7344 61.19271Q827.4219 62.00521 827.4219 63.520836L827.4219 63.97396L823.125 63.97396Q823.15625 64.91146 823.6719 65.489586Q824.2031 66.06771 825.0156 66.06771Q825.5781 66.06771 825.96875 65.833336Q826.375 65.59896 826.6875 65.208336L827.34375 65.72396Q826.5469 66.958336 824.9531 66.958336ZM824.8125 61.270836Q824.15625 61.270836 823.7031 61.75521Q823.2656 62.22396 823.1719 63.083336L826.34375 63.083336L826.34375 63.00521Q826.2969 62.177086 825.8906 61.72396Q825.5 61.270836 824.8125 61.270836ZM832.2344 66.833336Q832.1406 66.645836 832.0781 66.16146Q831.3281 66.958336 830.28125 66.958336Q829.34375 66.958336 828.7344 66.427086Q828.1406 65.895836 828.1406 65.06771Q828.1406 64.083336 828.8906 63.53646Q829.6406 62.989586 831.0156 62.989586L832.0625 62.989586L832.0625 62.489586Q832.0625 61.927086 831.71875 61.59896Q831.3906 61.25521 830.71875 61.25521Q830.1406 61.25521 829.75 61.552086Q829.3594 61.833336 829.3594 62.25521L828.2656 62.25521Q828.2656 61.770836 828.59375 61.333336Q828.9375 60.895836 829.5156 60.645836Q830.09375 60.38021 830.78125 60.38021Q831.8906 60.38021 832.5 60.927086Q833.125 61.47396 833.15625 62.427086L833.15625 65.34896Q833.15625 66.22396 833.375 66.739586L833.375 66.833336L832.2344 66.833336ZM830.4375 66.00521Q830.9531 66.00521 831.40625 65.739586Q831.8594 65.47396 832.0625 65.052086L832.0625 63.75521L831.21875 63.75521Q829.21875 63.75521 829.21875 64.927086Q829.21875 65.427086 829.5625 65.72396Q829.90625 66.00521 830.4375 66.00521ZM839.0156 65.145836Q839.0156 64.708336 838.6719 64.47396Q838.34375 64.22396 837.5156 64.052086Q836.7031 63.88021 836.21875 63.63021Q835.7344 63.38021 835.5 63.052086Q835.28125 62.708336 835.28125 62.239586Q835.28125 61.458336 835.9375 60.927086Q836.59375 60.38021 837.625 60.38021Q838.7031 60.38021 839.3594 60.94271Q840.03125 61.489586 840.03125 62.34896L838.9531 62.34896Q838.9531 61.91146 838.5625 61.59896Q838.1875 61.270836 837.625 61.270836Q837.03125 61.270836 836.6875 61.53646Q836.3594 61.78646 836.3594 62.19271Q836.3594 62.583336 836.6719 62.78646Q836.9844 62.989586 837.7969 63.177086Q838.6094 63.34896 839.1094 63.59896Q839.6094 63.84896 839.84375 64.208336Q840.09375 64.56771 840.09375 65.06771Q840.09375 65.927086 839.40625 66.44271Q838.7344 66.958336 837.65625 66.958336Q836.8906 66.958336 836.2969 66.69271Q835.71875 66.41146 835.3906 65.927086Q835.0625 65.44271 835.0625 64.88021L836.1406 64.88021Q836.1719 65.427086 836.5781 65.75521Q836.9844 66.06771 837.65625 66.06771Q838.2656 66.06771 838.6406 65.81771Q839.0156 65.56771 839.0156 65.145836ZM843.9531 66.958336Q842.65625 66.958336 841.84375 66.114586Q841.0469 65.25521 841.0469 63.833336L841.0469 63.645836Q841.0469 62.69271 841.40625 61.958336Q841.7656 61.208336 842.40625 60.802086Q843.0625 60.38021 843.8125 60.38021Q845.0469 60.38021 845.7344 61.19271Q846.4219 62.00521 846.4219 63.520836L846.4219 63.97396L842.125 63.97396Q842.15625 64.91146 842.6719 65.489586Q843.2031 66.06771 844.0156 66.06771Q844.5781 66.06771 844.96875 65.833336Q845.375 65.59896 845.6875 65.208336L846.34375 65.72396Q845.5469 66.958336 843.9531 66.958336ZM843.8125 61.270836Q843.15625 61.270836 842.7031 61.75521Q842.2656 62.22396 842.1719 63.083336L845.34375 63.083336L845.34375 63.00521Q845.2969 62.177086 844.8906 61.72396Q844.5 61.270836 843.8125 61.270836ZM847.0625 63.614586Q847.0625 62.145836 847.75 61.270836Q848.4375 60.38021 849.5625 60.38021Q850.6719 60.38021 851.3281 61.13021L851.3281 57.833336L852.40625 57.833336L852.40625 66.833336L851.40625 66.833336L851.3594 66.145836Q850.7031 66.958336 849.5469 66.958336Q848.4531 66.958336 847.75 66.052086Q847.0625 65.145836 847.0625 63.69271L847.0625 63.614586ZM848.1406 63.739586Q848.1406 64.81771 848.5781 65.427086Q849.03125 66.03646 849.8125 66.03646Q850.84375 66.03646 851.3281 65.09896L851.3281 62.19271Q850.84375 61.302086 849.8281 61.302086Q849.03125 61.302086 848.5781 61.91146Q848.1406 62.520836 848.1406 63.739586Z" fill-rule="nonzero"/><path stroke="#dc3912" stroke-width="4.0" stroke-linecap="butt" d="M724.5 87.333336L736.5 87.333336" fill-rule="nonzero"/><path fill="#757575" d="M751.7969 90.708336Q751.3594 91.333336 750.5781 91.645836Q749.7969 91.958336 748.7656 91.958336Q747.7344 91.958336 746.9219 91.47396Q746.1094 90.97396 745.6719 90.06771Q745.2344 89.16146 745.21875 87.97396L745.21875 87.239586Q745.21875 85.302086 746.1094 84.239586Q747.0156 83.177086 748.6406 83.177086Q749.9844 83.177086 750.7969 83.864586Q751.6094 84.552086 751.7969 85.802086L750.6719 85.802086Q750.34375 84.114586 748.65625 84.114586Q747.5156 84.114586 746.9375 84.91146Q746.3594 85.69271 746.34375 87.208336L746.34375 87.895836Q746.34375 89.333336 747.0 90.19271Q747.65625 91.03646 748.78125 91.03646Q749.40625 91.03646 749.875 90.895836Q750.3594 90.75521 750.6719 90.41146L750.6719 88.50521L748.7031 88.50521L748.7031 87.583336L751.7969 87.583336L751.7969 90.708336ZM757.0625 83.302086L758.2031 83.302086L758.2031 89.34896Q758.2031 90.56771 757.4531 91.270836Q756.71875 91.958336 755.5 91.958336Q754.2344 91.958336 753.5156 91.302086Q752.8125 90.645836 752.8125 89.47396L753.9375 89.47396Q753.9375 90.208336 754.3281 90.63021Q754.7344 91.03646 755.5 91.03646Q756.2031 91.03646 756.625 90.59896Q757.0625 90.145836 757.0625 89.364586L757.0625 83.302086ZM763.0 88.03646Q761.5625 87.614586 760.8906 87.00521Q760.2344 86.395836 760.2344 85.50521Q760.2344 84.50521 761.03125 83.84896Q761.84375 83.177086 763.1406 83.177086Q764.0156 83.177086 764.7031 83.520836Q765.3906 83.864586 765.7656 84.458336Q766.15625 85.052086 766.15625 85.770836L765.0156 85.770836Q765.0156 84.989586 764.5156 84.552086Q764.03125 84.114586 763.1406 84.114586Q762.3125 84.114586 761.84375 84.489586Q761.375 84.84896 761.375 85.489586Q761.375 86.020836 761.8125 86.38021Q762.2656 86.739586 763.3281 87.03646Q764.3906 87.333336 764.9844 87.69271Q765.59375 88.052086 765.875 88.53646Q766.1719 89.020836 766.1719 89.66146Q766.1719 90.708336 765.3594 91.333336Q764.5469 91.958336 763.2031 91.958336Q762.3125 91.958336 761.5469 91.614586Q760.7969 91.270836 760.375 90.69271Q759.96875 90.09896 759.96875 89.364586L761.09375 89.364586Q761.09375 90.13021 761.6719 90.583336Q762.25 91.03646 763.2031 91.03646Q764.09375 91.03646 764.5625 90.677086Q765.03125 90.302086 765.03125 89.677086Q765.03125 89.052086 764.59375 88.708336Q764.15625 88.364586 763.0 88.03646ZM775.6719 88.739586Q775.6719 90.177086 775.0156 91.06771Q774.3594 91.958336 773.21875 91.958336Q772.0625 91.958336 771.40625 91.22396L771.40625 94.270836L770.3281 94.270836L770.3281 85.489586L771.3125 85.489586L771.3594 86.19271Q772.03125 85.38021 773.2031 85.38021Q774.34375 85.38021 775.0 86.239586Q775.6719 87.09896 775.6719 88.63021L775.6719 88.739586ZM774.59375 88.614586Q774.59375 87.53646 774.125 86.927086Q773.6719 86.302086 772.875 86.302086Q771.8906 86.302086 771.40625 87.16146L771.40625 90.19271Q771.8906 91.06771 772.8906 91.06771Q773.6719 91.06771 774.125 90.458336Q774.59375 89.833336 774.59375 88.614586ZM777.03125 88.59896Q777.03125 87.677086 777.3906 86.927086Q777.7656 86.177086 778.4219 85.78646Q779.0781 85.38021 779.90625 85.38021Q781.2031 85.38021 782.0 86.270836Q782.8125 87.16146 782.8125 88.66146L782.8125 88.739586Q782.8125 89.66146 782.4531 90.395836Q782.09375 91.13021 781.4375 91.552086Q780.78125 91.958336 779.9219 91.958336Q778.6406 91.958336 777.8281 91.06771Q777.03125 90.16146 777.03125 88.677086L777.03125 88.59896ZM778.125 88.739586Q778.125 89.78646 778.6094 90.427086Q779.1094 91.06771 779.9219 91.06771Q780.75 91.06771 781.2344 90.427086Q781.71875 89.770836 781.71875 88.59896Q781.71875 87.56771 781.21875 86.927086Q780.7344 86.270836 779.90625 86.270836Q779.1094 86.270836 778.6094 86.91146Q778.125 87.53646 778.125 88.739586ZM787.3906 86.458336Q787.1406 86.427086 786.8594 86.427086Q785.78125 86.427086 785.40625 87.333336L785.40625 91.833336L784.3281 91.833336L784.3281 85.489586L785.375 85.489586L785.3906 86.22396Q785.9219 85.38021 786.90625 85.38021Q787.21875 85.38021 787.3906 85.458336L787.3906 86.458336ZM789.7969 83.958336L789.7969 85.489586L790.96875 85.489586L790.96875 86.333336L789.7969 86.333336L789.7969 90.25521Q789.7969 90.645836 789.9531 90.833336Q790.1094 91.020836 790.4844 91.020836Q790.6719 91.020836 791.0 90.958336L791.0 91.833336Q790.5781 91.958336 790.1719 91.958336Q789.4531 91.958336 789.0781 91.520836Q788.7031 91.06771 788.7031 90.25521L788.7031 86.333336L787.5469 86.333336L787.5469 85.489586L788.7031 85.489586L788.7031 83.958336L789.7969 83.958336ZM794.9531 91.958336Q793.65625 91.958336 792.84375 91.114586Q792.0469 90.25521 792.0469 88.833336L792.0469 88.645836Q792.0469 87.69271 792.40625 86.958336Q792.7656 86.208336 793.40625 85.802086Q794.0625 85.38021 794.8125 85.38021Q796.0469 85.38021 796.7344 86.19271Q797.4219 87.00521 797.4219 88.520836L797.4219 88.97396L793.125 88.97396Q793.15625 89.91146 793.6719 90.489586Q794.2031 91.06771 795.0156 91.06771Q795.5781 91.06771 795.96875 90.833336Q796.375 90.59896 796.6875 90.208336L797.34375 90.72396Q796.5469 91.958336 794.9531 91.958336ZM794.8125 86.270836Q794.15625 86.270836 793.7031 86.75521Q793.2656 87.22396 793.1719 88.083336L796.34375 88.083336L796.34375 88.00521Q796.2969 87.177086 795.8906 86.72396Q795.5 86.270836 794.8125 86.270836ZM798.0625 88.614586Q798.0625 87.145836 798.75 86.270836Q799.4375 85.38021 800.5625 85.38021Q801.6719 85.38021 802.3281 86.13021L802.3281 82.833336L803.40625 82.833336L803.40625 91.833336L802.40625 91.833336L802.3594 91.145836Q801.7031 91.958336 800.5469 91.958336Q799.4531 91.958336 798.75 91.052086Q798.0625 90.145836 798.0625 88.69271L798.0625 88.614586ZM799.1406 88.739586Q799.1406 89.81771 799.5781 90.427086Q800.03125 91.03646 800.8125 91.03646Q801.84375 91.03646 802.3281 90.09896L802.3281 87.19271Q801.84375 86.302086 800.8281 86.302086Q800.03125 86.302086 799.5781 86.91146Q799.1406 87.520836 799.1406 88.739586Z" fill-rule="nonzero"/><path fill="#757575" d="M30.65625 35.640625Q29.921875 36.671875 28.625 37.1875Q27.34375 37.703125 25.625 37.703125Q23.875 37.703125 22.53125 36.890625Q21.1875 36.0625 20.453125 34.5625Q19.71875 33.0625 19.6875 31.078125L19.6875 29.828125Q19.6875 26.625 21.1875 24.859375Q22.6875 23.078125 25.40625 23.078125Q27.625 23.078125 28.984375 24.21875Q30.34375 25.359375 30.65625 27.453125L28.78125 27.453125Q28.25 24.625 25.421875 24.625Q23.53125 24.625 22.5625 25.953125Q21.59375 27.28125 21.578125 29.78125L21.578125 30.953125Q21.578125 33.34375 22.671875 34.75Q23.765625 36.15625 25.625 36.15625Q26.6875 36.15625 27.46875 35.921875Q28.265625 35.6875 28.78125 35.140625L28.78125 31.9375L25.5 31.9375L25.5 30.421875L30.65625 30.421875L30.65625 35.640625ZM40.109375 23.28125L42.0 23.28125L42.0 33.34375Q42.0 35.390625 40.765625 36.546875Q39.546875 37.703125 37.5 37.703125Q35.375 37.703125 34.1875 36.625Q33.015625 35.53125 33.015625 33.578125L34.890625 33.578125Q34.890625 34.796875 35.5625 35.484375Q36.234375 36.15625 37.5 36.15625Q38.65625 36.15625 39.375 35.4375Q40.09375 34.703125 40.109375 33.375L40.109375 23.28125ZM49.34375 31.15625Q46.921875 30.46875 45.828125 29.46875Q44.734375 28.453125 44.734375 26.96875Q44.734375 25.28125 46.078125 24.1875Q47.421875 23.078125 49.5625 23.078125Q51.03125 23.078125 52.171875 23.65625Q53.328125 24.21875 53.953125 25.21875Q54.578125 26.203125 54.578125 27.390625L52.703125 27.390625Q52.703125 26.109375 51.875 25.375Q51.0625 24.625 49.5625 24.625Q48.171875 24.625 47.390625 25.234375Q46.625 25.84375 46.625 26.9375Q46.625 27.796875 47.359375 28.40625Q48.09375 29.0 49.859375 29.5Q51.640625 30.0 52.640625 30.609375Q53.640625 31.203125 54.125 32.0Q54.609375 32.796875 54.609375 33.890625Q54.609375 35.609375 53.265625 36.65625Q51.921875 37.703125 49.65625 37.703125Q48.203125 37.703125 46.921875 37.140625Q45.65625 36.578125 44.96875 35.609375Q44.28125 34.625 44.28125 33.375L46.171875 33.375Q46.171875 34.671875 47.125 35.421875Q48.078125 36.15625 49.65625 36.15625Q51.140625 36.15625 51.9375 35.5625Q52.734375 34.953125 52.734375 33.90625Q52.734375 32.859375 52.0 32.296875Q51.265625 31.71875 49.34375 31.15625ZM57.96875 23.578125L57.765625 27.171875L56.5 27.171875L56.515625 22.5L57.96875 22.5L57.96875 23.578125ZM66.015625 34.703125Q66.015625 33.96875 65.46875 33.5625Q64.921875 33.15625 63.546875 32.859375Q62.171875 32.5625 61.359375 32.15625Q60.5625 31.75 60.171875 31.1875Q59.796875 30.609375 59.796875 29.828125Q59.796875 28.53125 60.890625 27.640625Q61.984375 26.734375 63.703125 26.734375Q65.5 26.734375 66.609375 27.671875Q67.734375 28.59375 67.734375 30.03125L65.90625 30.03125Q65.90625 29.296875 65.28125 28.765625Q64.65625 28.21875 63.703125 28.21875Q62.703125 28.21875 62.140625 28.65625Q61.59375 29.078125 61.59375 29.78125Q61.59375 30.421875 62.109375 30.765625Q62.625 31.09375 63.984375 31.40625Q65.34375 31.703125 66.171875 32.125Q67.015625 32.53125 67.421875 33.125Q67.828125 33.71875 67.828125 34.5625Q67.828125 35.984375 66.6875 36.84375Q65.5625 37.703125 63.75 37.703125Q62.484375 37.703125 61.5 37.25Q60.53125 36.796875 59.96875 36.0Q59.421875 35.1875 59.421875 34.25L61.234375 34.25Q61.28125 35.15625 61.953125 35.6875Q62.640625 36.21875 63.75 36.21875Q64.78125 36.21875 65.390625 35.8125Q66.015625 35.390625 66.015625 34.703125ZM81.109375 23.28125L83.0 23.28125L83.0 33.34375Q83.0 35.390625 81.765625 36.546875Q80.546875 37.703125 78.5 37.703125Q76.375 37.703125 75.1875 36.625Q74.015625 35.53125 74.015625 33.578125L75.890625 33.578125Q75.890625 34.796875 76.5625 35.484375Q77.234375 36.15625 78.5 36.15625Q79.65625 36.15625 80.375 35.4375Q81.09375 34.703125 81.109375 33.375L81.109375 23.28125ZM92.390625 37.5Q92.234375 37.1875 92.140625 36.390625Q90.875 37.703125 89.125 37.703125Q87.5625 37.703125 86.5625 36.8125Q85.5625 35.921875 85.5625 34.5625Q85.5625 32.921875 86.8125 32.015625Q88.078125 31.09375 90.34375 31.09375L92.109375 31.09375L92.109375 30.265625Q92.109375 29.3125 91.53125 28.75Q90.96875 28.1875 89.875 28.1875Q88.90625 28.1875 88.25 28.6875Q87.59375 29.171875 87.59375 29.859375L85.78125 29.859375Q85.78125 29.078125 86.34375 28.34375Q86.90625 27.59375 87.859375 27.171875Q88.828125 26.734375 89.984375 26.734375Q91.8125 26.734375 92.84375 27.65625Q93.875 28.5625 93.921875 30.171875L93.921875 35.03125Q93.921875 36.484375 94.28125 37.34375L94.28125 37.5L92.390625 37.5ZM89.390625 36.125Q90.25 36.125 91.0 35.6875Q91.765625 35.25 92.109375 34.546875L92.109375 32.375L90.6875 32.375Q87.375 32.375 87.375 34.3125Q87.375 35.171875 87.9375 35.65625Q88.5 36.125 89.390625 36.125ZM100.359375 35.046875L102.96875 26.9375L104.8125 26.9375L101.03125 37.5L99.65625 37.5L95.828125 26.9375L97.671875 26.9375L100.359375 35.046875ZM113.390625 37.5Q113.234375 37.1875 113.140625 36.390625Q111.875 37.703125 110.125 37.703125Q108.5625 37.703125 107.5625 36.8125Q106.5625 35.921875 106.5625 34.5625Q106.5625 32.921875 107.8125 32.015625Q109.078125 31.09375 111.34375 31.09375L113.109375 31.09375L113.109375 30.265625Q113.109375 29.3125 112.53125 28.75Q111.96875 28.1875 110.875 28.1875Q109.90625 28.1875 109.25 28.6875Q108.59375 29.171875 108.59375 29.859375L106.78125 29.859375Q106.78125 29.078125 107.34375 28.34375Q107.90625 27.59375 108.859375 27.171875Q109.828125 26.734375 110.984375 26.734375Q112.8125 26.734375 113.84375 27.65625Q114.875 28.5625 114.921875 30.171875L114.921875 35.03125Q114.921875 36.484375 115.28125 37.34375L115.28125 37.5L113.390625 37.5ZM110.390625 36.125Q111.25 36.125 112.0 35.6875Q112.765625 35.25 113.109375 34.546875L113.109375 32.375L111.6875 32.375Q108.375 32.375 108.375 34.3125Q108.375 35.171875 108.9375 35.65625Q109.5 36.125 110.390625 36.125ZM124.015625 34.703125Q124.015625 33.96875 123.46875 33.5625Q122.921875 33.15625 121.546875 32.859375Q120.171875 32.5625 119.359375 32.15625Q118.5625 31.75 118.171875 31.1875Q117.796875 30.609375 117.796875 29.828125Q117.796875 28.53125 118.890625 27.640625Q119.984375 26.734375 121.703125 26.734375Q123.5 26.734375 124.609375 27.671875Q125.734375 28.59375 125.734375 30.03125L123.90625 30.03125Q123.90625 29.296875 123.28125 28.765625Q122.65625 28.21875 121.703125 28.21875Q120.703125 28.21875 120.140625 28.65625Q119.59375 29.078125 119.59375 29.78125Q119.59375 30.421875 120.109375 30.765625Q120.625 31.09375 121.984375 31.40625Q123.34375 31.703125 124.171875 32.125Q125.015625 32.53125 125.421875 33.125Q125.828125 33.71875 125.828125 34.5625Q125.828125 35.984375 124.6875 36.84375Q123.5625 37.703125 121.75 37.703125Q120.484375 37.703125 119.5 37.25Q118.53125 36.796875 117.96875 36.0Q117.421875 35.1875 117.421875 34.25L119.234375 34.25Q119.28125 35.15625 119.953125 35.6875Q120.640625 36.21875 121.75 36.21875Q122.78125 36.21875 123.390625 35.8125Q124.015625 35.390625 124.015625 34.703125ZM132.10938 36.21875Q133.07812 36.21875 133.79688 35.640625Q134.51562 35.046875 134.59375 34.171875L136.3125 34.171875Q136.25 35.078125 135.67188 35.90625Q135.10938 36.71875 134.14062 37.21875Q133.1875 37.703125 132.10938 37.703125Q129.95312 37.703125 128.67188 36.265625Q127.40625 34.8125 127.40625 32.3125L127.40625 32.015625Q127.40625 30.46875 127.96875 29.265625Q128.53125 28.0625 129.59375 27.40625Q130.65625 26.734375 132.09375 26.734375Q133.875 26.734375 135.04688 27.796875Q136.23438 28.859375 136.3125 30.5625L134.59375 30.5625Q134.51562 29.546875 133.8125 28.890625Q133.125 28.21875 132.09375 28.21875Q130.71875 28.21875 129.95312 29.21875Q129.20312 30.203125 129.20312 32.078125L129.20312 32.421875Q129.20312 34.25 129.95312 35.234375Q130.70312 36.21875 132.10938 36.21875ZM142.96875 28.546875Q142.5625 28.484375 142.09375 28.484375Q140.3125 28.484375 139.67188 30.0L139.67188 37.5L137.875 37.5L137.875 26.9375L139.625 26.9375L139.65625 28.15625Q140.54688 26.734375 142.17188 26.734375Q142.70312 26.734375 142.96875 26.875L142.96875 28.546875ZM146.82812 37.5L145.03125 37.5L145.03125 26.9375L146.82812 26.9375L146.82812 37.5ZM144.875 24.125Q144.875 23.6875 145.14062 23.390625Q145.42188 23.078125 145.9375 23.078125Q146.46875 23.078125 146.73438 23.390625Q147.01562 23.6875 147.01562 24.125Q147.01562 24.5625 146.73438 24.859375Q146.46875 25.15625 145.9375 25.15625Q145.42188 25.15625 145.14062 24.859375Q144.875 24.5625 144.875 24.125ZM158.79688 32.328125Q158.79688 34.75 157.6875 36.234375Q156.59375 37.703125 154.70312 37.703125Q152.78125 37.703125 151.67188 36.46875L151.67188 41.5625L149.875 41.5625L149.875 26.9375L151.51562 26.9375L151.60938 28.109375Q152.70312 26.734375 154.67188 26.734375Q156.57812 26.734375 157.6875 28.171875Q158.79688 29.609375 158.79688 32.171875L158.79688 32.328125ZM156.98438 32.125Q156.98438 30.34375 156.21875 29.3125Q155.46875 28.265625 154.14062 28.265625Q152.5 28.265625 151.67188 29.71875L151.67188 34.78125Q152.48438 36.21875 154.15625 36.21875Q155.45312 36.21875 156.21875 35.1875Q156.98438 34.15625 156.98438 32.125ZM163.3125 24.375L163.3125 26.9375L165.29688 26.9375L165.29688 28.328125L163.3125 28.328125L163.3125 34.875Q163.3125 35.515625 163.57812 35.84375Q163.84375 36.15625 164.48438 36.15625Q164.79688 36.15625 165.34375 36.03125L165.34375 37.5Q164.625 37.703125 163.95312 37.703125Q162.75 37.703125 162.125 36.96875Q161.51562 36.234375 161.51562 34.875L161.51562 28.328125L159.59375 28.328125L159.59375 26.9375L161.51562 26.9375L161.51562 24.375L163.3125 24.375ZM177.25 37.703125Q175.10938 37.703125 173.75 36.296875Q172.40625 34.875 172.40625 32.515625L172.40625 32.171875Q172.40625 30.609375 173.0 29.375Q173.60938 28.140625 174.6875 27.4375Q175.76562 26.734375 177.03125 26.734375Q179.09375 26.734375 180.23438 28.09375Q181.375 29.453125 181.375 31.984375L181.375 32.734375L174.21875 32.734375Q174.25 34.296875 175.125 35.265625Q176.0 36.21875 177.34375 36.21875Q178.3125 36.21875 178.96875 35.828125Q179.64062 35.4375 180.14062 34.796875L181.23438 35.65625Q179.90625 37.703125 177.25 37.703125ZM177.03125 28.21875Q175.9375 28.21875 175.1875 29.015625Q174.45312 29.8125 174.28125 31.25L179.5625 31.25L179.5625 31.109375Q179.48438 29.734375 178.8125 28.984375Q178.15625 28.21875 177.03125 28.21875ZM185.57812 26.9375L185.64062 28.265625Q186.84375 26.734375 188.79688 26.734375Q192.15625 26.734375 192.17188 30.515625L192.17188 37.5L190.375 37.5L190.375 30.5Q190.35938 29.359375 189.84375 28.8125Q189.34375 28.265625 188.25 28.265625Q187.375 28.265625 186.70312 28.734375Q186.04688 29.203125 185.67188 29.96875L185.67188 37.5L183.875 37.5L183.875 26.9375L185.57812 26.9375ZM194.4375 32.125Q194.4375 29.65625 195.57812 28.203125Q196.71875 26.734375 198.60938 26.734375Q200.54688 26.734375 201.625 28.109375L201.71875 26.9375L203.35938 26.9375L203.35938 37.25Q203.35938 39.296875 202.14062 40.46875Q200.9375 41.65625 198.875 41.65625Q197.73438 41.65625 196.64062 41.171875Q195.54688 40.6875 194.96875 39.828125L195.90625 38.75Q197.07812 40.1875 198.75 40.1875Q200.07812 40.1875 200.8125 39.4375Q201.54688 38.703125 201.54688 37.359375L201.54688 36.4375Q200.46875 37.703125 198.59375 37.703125Q196.73438 37.703125 195.57812 36.203125Q194.4375 34.703125 194.4375 32.125ZM196.25 32.328125Q196.25 34.125 196.98438 35.140625Q197.71875 36.15625 199.03125 36.15625Q200.75 36.15625 201.54688 34.609375L201.54688 29.78125Q200.71875 28.265625 199.0625 28.265625Q197.73438 28.265625 196.98438 29.296875Q196.25 30.328125 196.25 32.328125ZM207.82812 37.5L206.03125 37.5L206.03125 26.9375L207.82812 26.9375L207.82812 37.5ZM205.875 24.125Q205.875 23.6875 206.14062 23.390625Q206.42188 23.078125 206.9375 23.078125Q207.46875 23.078125 207.73438 23.390625Q208.01562 23.6875 208.01562 24.125Q208.01562 24.5625 207.73438 24.859375Q207.46875 25.15625 206.9375 25.15625Q206.42188 25.15625 206.14062 24.859375Q205.875 24.5625 205.875 24.125ZM212.57812 26.9375L212.64062 28.265625Q213.84375 26.734375 215.79688 26.734375Q219.15625 26.734375 219.17188 30.515625L219.17188 37.5L217.375 37.5L217.375 30.5Q217.35938 29.359375 216.84375 28.8125Q216.34375 28.265625 215.25 28.265625Q214.375 28.265625 213.70312 28.734375Q213.04688 29.203125 212.67188 29.96875L212.67188 37.5L210.875 37.5L210.875 26.9375L212.57812 26.9375ZM226.25 37.703125Q224.10938 37.703125 222.75 36.296875Q221.40625 34.875 221.40625 32.515625L221.40625 32.171875Q221.40625 30.609375 222.0 29.375Q222.60938 28.140625 223.6875 27.4375Q224.76562 26.734375 226.03125 26.734375Q228.09375 26.734375 229.23438 28.09375Q230.375 29.453125 230.375 31.984375L230.375 32.734375L223.21875 32.734375Q223.25 34.296875 224.125 35.265625Q225.0 36.21875 226.34375 36.21875Q227.3125 36.21875 227.96875 35.828125Q228.64062 35.4375 229.14062 34.796875L230.23438 35.65625Q228.90625 37.703125 226.25 37.703125ZM226.03125 28.21875Q224.9375 28.21875 224.1875 29.015625Q223.45312 29.8125 223.28125 31.25L228.5625 31.25L228.5625 31.109375Q228.48438 29.734375 227.8125 28.984375Q227.15625 28.21875 226.03125 28.21875Z" fill-rule="nonzero"/></svg>